<svg xmlns="http://www.w3.org/2000/svg" xmlns:xlink="http://www.w3.org/1999/xlink" viewBox="0 0 291.55 148.46"><defs><style>.cls-1{isolation:isolate;}.cls-2{fill:#ffcf0f;}.cls-3,.cls-4,.cls-9{fill:#436fb1;}.cls-4{font-size:16.02px;}.cls-4,.cls-9{font-family:Helvetica, Helvetica;}.cls-5{letter-spacing:-0.02em;}.cls-6{letter-spacing:-0.04em;}.cls-7{letter-spacing:0em;}.cls-8{fill:none;stroke:#436fb1;stroke-miterlimit:10;stroke-width:2px;}.cls-9{font-size:43.93px;}.cls-10{fill:url(#linear-gradient);}.cls-11{fill:url(#linear-gradient-2);}.cls-12{fill:url(#linear-gradient-3);}.cls-13{fill:url(#linear-gradient-4);}.cls-14{fill:url(#linear-gradient-5);}.cls-15{fill:url(#linear-gradient-6);}.cls-16{fill:url(#linear-gradient-7);}.cls-17{fill:url(#linear-gradient-8);}.cls-18{fill:url(#linear-gradient-9);}.cls-19{fill:url(#linear-gradient-10);}.cls-20{fill:url(#linear-gradient-11);}.cls-21{fill:url(#linear-gradient-12);}.cls-22{fill:url(#linear-gradient-13);}.cls-23{fill:url(#linear-gradient-14);}.cls-24{fill:url(#linear-gradient-15);}.cls-25{fill:url(#linear-gradient-16);}.cls-26{fill:url(#linear-gradient-17);}.cls-27{fill:url(#linear-gradient-18);}.cls-28{fill:url(#linear-gradient-19);}.cls-29{fill:url(#linear-gradient-20);}.cls-30{fill:url(#linear-gradient-21);}.cls-31{fill:url(#linear-gradient-22);}.cls-32{fill:url(#linear-gradient-23);}.cls-33{fill:url(#linear-gradient-24);}.cls-34{fill:url(#linear-gradient-25);}.cls-35{fill:url(#linear-gradient-26);}.cls-36{fill:url(#linear-gradient-27);}.cls-37{fill:url(#linear-gradient-28);}.cls-38{fill:url(#linear-gradient-29);}.cls-39{fill:url(#linear-gradient-30);}.cls-40{fill:url(#linear-gradient-31);}.cls-41{fill:url(#linear-gradient-32);}.cls-42{fill:url(#linear-gradient-33);}.cls-43{fill:url(#linear-gradient-34);}.cls-44{fill:url(#linear-gradient-35);}.cls-45{fill:url(#linear-gradient-36);}.cls-46{fill:url(#linear-gradient-37);}.cls-47{fill:url(#linear-gradient-38);}.cls-48{fill:url(#linear-gradient-39);}.cls-49{fill:url(#linear-gradient-40);}.cls-50{fill:url(#linear-gradient-41);}.cls-51{fill:url(#linear-gradient-42);}.cls-52{fill:url(#linear-gradient-43);}.cls-53{fill:url(#linear-gradient-44);}.cls-54{fill:url(#linear-gradient-45);}.cls-55{fill:url(#linear-gradient-46);}.cls-56{fill:url(#linear-gradient-47);}.cls-57{fill:url(#linear-gradient-48);}.cls-58{fill:url(#linear-gradient-49);}.cls-59{fill:url(#linear-gradient-50);}.cls-60{fill:url(#linear-gradient-51);}.cls-61{fill:url(#linear-gradient-52);}.cls-62{fill:url(#linear-gradient-53);}.cls-63{fill:url(#radial-gradient);}.cls-64{mix-blend-mode:screen;fill:url(#radial-gradient-2);}.cls-65{fill:url(#radial-gradient-3);}.cls-66{fill:url(#radial-gradient-4);}.cls-67{fill:#0476b4;}</style><linearGradient id="linear-gradient" x1="-2737.19" y1="-302.9" x2="-2699.31" y2="-267.89" gradientTransform="matrix(-0.03, -1, -8.95, 0.29, 140.02, -1972.7)" gradientUnits="userSpaceOnUse"><stop offset="0" stop-color="#1f5429"/><stop offset="0.05" stop-color="#26602d"/><stop offset="0.25" stop-color="#41903b"/><stop offset="0.41" stop-color="#52ae44"/><stop offset="0.5" stop-color="#58b947"/><stop offset="0.58" stop-color="#53b145"/><stop offset="0.71" stop-color="#479b3e"/><stop offset="0.87" stop-color="#373"/><stop offset="1" stop-color="#1f5429"/></linearGradient><linearGradient id="linear-gradient-2" x1="-1918.38" y1="1980.8" x2="-1918.38" y2="1980.8" gradientTransform="matrix(-0.46, -0.89, -0.89, 0.46, 1284.81, -2170.61)" xlink:href="#linear-gradient"/><linearGradient id="linear-gradient-3" x1="-2225.79" y1="1688.5" x2="-2189" y2="1722.5" gradientTransform="matrix(-0.46, -0.89, -0.89, 0.46, 1284.81, -2170.61)" xlink:href="#linear-gradient"/><linearGradient id="linear-gradient-4" x1="-2223.05" y1="1688.07" x2="-2186.42" y2="1721.93" gradientTransform="matrix(-0.46, -0.89, -0.89, 0.46, 1284.81, -2170.61)" xlink:href="#linear-gradient"/><linearGradient id="linear-gradient-5" x1="-2223.34" y1="1686.15" x2="-2186.58" y2="1720.13" gradientTransform="matrix(-0.46, -0.89, -0.89, 0.46, 1284.81, -2170.61)" xlink:href="#linear-gradient"/><linearGradient id="linear-gradient-6" x1="-2222.64" y1="1685.35" x2="-2185.88" y2="1719.32" gradientTransform="matrix(-0.46, -0.89, -0.89, 0.46, 1284.81, -2170.61)" xlink:href="#linear-gradient"/><linearGradient id="linear-gradient-7" x1="-2223.54" y1="1690.1" x2="-2186.99" y2="1723.88" gradientTransform="matrix(-0.46, -0.89, -0.89, 0.46, 1284.81, -2170.61)" xlink:href="#linear-gradient"/><linearGradient id="linear-gradient-8" x1="-2224.6" y1="1688.73" x2="-2187.91" y2="1722.65" gradientTransform="matrix(-0.46, -0.89, -0.89, 0.46, 1284.81, -2170.61)" xlink:href="#linear-gradient"/><linearGradient id="linear-gradient-9" x1="-2225.36" y1="1687.75" x2="-2188.56" y2="1721.77" gradientTransform="matrix(-0.46, -0.89, -0.89, 0.46, 1284.81, -2170.61)" xlink:href="#linear-gradient"/><linearGradient id="linear-gradient-10" x1="-2225.04" y1="1687.37" x2="-2188.24" y2="1721.38" gradientTransform="matrix(-0.46, -0.89, -0.89, 0.46, 1284.81, -2170.61)" xlink:href="#linear-gradient"/><linearGradient id="linear-gradient-11" x1="-2224.71" y1="1686" x2="-2187.85" y2="1720.07" gradientTransform="matrix(-0.46, -0.89, -0.89, 0.46, 1284.81, -2170.61)" xlink:href="#linear-gradient"/><linearGradient id="linear-gradient-12" x1="-2225.03" y1="1686.37" x2="-2188.17" y2="1720.44" gradientTransform="matrix(-0.46, -0.89, -0.89, 0.46, 1284.81, -2170.61)" xlink:href="#linear-gradient"/><linearGradient id="linear-gradient-13" x1="-2223.47" y1="1685.35" x2="-2186.66" y2="1719.38" gradientTransform="matrix(-0.46, -0.89, -0.89, 0.46, 1284.81, -2170.61)" xlink:href="#linear-gradient"/><linearGradient id="linear-gradient-14" x1="-2223.63" y1="1683.51" x2="-2186.7" y2="1717.65" gradientTransform="matrix(-0.46, -0.89, -0.89, 0.46, 1284.81, -2170.61)" xlink:href="#linear-gradient"/><linearGradient id="linear-gradient-15" x1="-2221.25" y1="1677.71" x2="-2183.95" y2="1712.19" gradientTransform="matrix(-0.46, -0.89, -0.89, 0.46, 1284.81, -2170.61)" xlink:href="#linear-gradient"/><linearGradient id="linear-gradient-16" x1="-2222.1" y1="1685.33" x2="-2185.19" y2="1719.44" gradientTransform="matrix(-0.46, -0.89, -0.89, 0.46, 1284.81, -2170.61)" xlink:href="#linear-gradient"/><linearGradient id="linear-gradient-17" x1="-2223.42" y1="1682.31" x2="-2186.25" y2="1716.67" gradientTransform="matrix(-0.46, -0.89, -0.89, 0.46, 1284.81, -2170.61)" xlink:href="#linear-gradient"/><linearGradient id="linear-gradient-18" x1="-2222.78" y1="1684.26" x2="-2185.76" y2="1718.48" gradientTransform="matrix(-0.46, -0.89, -0.89, 0.46, 1284.81, -2170.61)" xlink:href="#linear-gradient"/><linearGradient id="linear-gradient-19" x1="-2221.77" y1="1679.72" x2="-2184.55" y2="1714.12" gradientTransform="matrix(-0.46, -0.89, -0.89, 0.46, 1284.81, -2170.61)" xlink:href="#linear-gradient"/><linearGradient id="linear-gradient-20" x1="-2221.05" y1="1679.03" x2="-2183.84" y2="1713.42" gradientTransform="matrix(-0.46, -0.89, -0.89, 0.46, 1284.81, -2170.61)" xlink:href="#linear-gradient"/><linearGradient id="linear-gradient-21" x1="-2221.32" y1="1677.52" x2="-2184.01" y2="1712.02" gradientTransform="matrix(-0.46, -0.89, -0.89, 0.46, 1284.81, -2170.61)" xlink:href="#linear-gradient"/><linearGradient id="linear-gradient-22" x1="-2221.09" y1="1675.46" x2="-2183.66" y2="1710.05" gradientTransform="matrix(-0.46, -0.89, -0.89, 0.46, 1284.81, -2170.61)" xlink:href="#linear-gradient"/><linearGradient id="linear-gradient-23" x1="-2223.14" y1="1674.16" x2="-2185.5" y2="1708.95" gradientTransform="matrix(-0.46, -0.89, -0.89, 0.46, 1284.81, -2170.61)" xlink:href="#linear-gradient"/><linearGradient id="linear-gradient-24" x1="-2221.24" y1="1672.29" x2="-2183.61" y2="1707.07" gradientTransform="matrix(-0.46, -0.89, -0.89, 0.46, 1284.81, -2170.61)" xlink:href="#linear-gradient"/><linearGradient id="linear-gradient-25" x1="-2220.41" y1="1670.12" x2="-2182.71" y2="1704.97" gradientTransform="matrix(-0.46, -0.89, -0.89, 0.46, 1284.81, -2170.61)" xlink:href="#linear-gradient"/><linearGradient id="linear-gradient-26" x1="-2241.92" y1="1669.51" x2="-2203" y2="1705.48" gradientTransform="matrix(-0.46, -0.89, -0.89, 0.46, 1284.81, -2170.61)" xlink:href="#linear-gradient"/><linearGradient id="linear-gradient-27" x1="-2247.32" y1="1660.86" x2="-2207.52" y2="1697.64" gradientTransform="matrix(-0.46, -0.89, -0.89, 0.46, 1284.81, -2170.61)" xlink:href="#linear-gradient"/><linearGradient id="linear-gradient-28" x1="-2241.96" y1="1669.77" x2="-2203.04" y2="1705.74" gradientTransform="matrix(-0.46, -0.89, -0.89, 0.46, 1284.81, -2170.61)" xlink:href="#linear-gradient"/><linearGradient id="linear-gradient-29" x1="-2241.01" y1="1668.8" x2="-2202.1" y2="1704.77" gradientTransform="matrix(-0.46, -0.89, -0.89, 0.46, 1284.81, -2170.61)" xlink:href="#linear-gradient"/><linearGradient id="linear-gradient-30" x1="-2242.02" y1="1669.78" x2="-2203.11" y2="1705.75" gradientTransform="matrix(-0.46, -0.89, -0.89, 0.46, 1284.81, -2170.61)" xlink:href="#linear-gradient"/><linearGradient id="linear-gradient-31" x1="-2243.28" y1="1667.22" x2="-2204.14" y2="1703.39" gradientTransform="matrix(-0.46, -0.89, -0.89, 0.46, 1284.81, -2170.61)" xlink:href="#linear-gradient"/><linearGradient id="linear-gradient-32" x1="-2241.81" y1="1667.74" x2="-2202.79" y2="1703.81" gradientTransform="matrix(-0.46, -0.89, -0.89, 0.46, 1284.81, -2170.61)" xlink:href="#linear-gradient"/><linearGradient id="linear-gradient-33" x1="-2244.64" y1="1663.95" x2="-2205.21" y2="1700.39" gradientTransform="matrix(-0.46, -0.89, -0.89, 0.46, 1284.81, -2170.61)" xlink:href="#linear-gradient"/><linearGradient id="linear-gradient-34" x1="-2248.18" y1="1659.04" x2="-2208.23" y2="1695.96" gradientTransform="matrix(-0.46, -0.89, -0.89, 0.46, 1284.81, -2170.61)" xlink:href="#linear-gradient"/><linearGradient id="linear-gradient-35" x1="-2241.74" y1="1664.2" x2="-2202.5" y2="1700.47" gradientTransform="matrix(-0.46, -0.89, -0.89, 0.46, 1284.81, -2170.61)" xlink:href="#linear-gradient"/><linearGradient id="linear-gradient-36" x1="-2246.93" y1="1658.75" x2="-2207.03" y2="1695.63" gradientTransform="matrix(-0.46, -0.89, -0.89, 0.46, 1284.81, -2170.61)" xlink:href="#linear-gradient"/><linearGradient id="linear-gradient-37" x1="-1945.62" y1="1929.29" x2="-1904.58" y2="1967.22" gradientTransform="matrix(-0.57, -0.82, -0.82, 0.57, 1199.79, -2202.25)" xlink:href="#linear-gradient"/><linearGradient id="linear-gradient-38" x1="-2254.73" y1="1645.01" x2="-2213.28" y2="1683.32" gradientTransform="matrix(-0.46, -0.89, -0.89, 0.46, 1284.81, -2170.61)" xlink:href="#linear-gradient"/><linearGradient id="linear-gradient-39" x1="-2212.75" y1="1683.8" x2="-2176.38" y2="1717.42" gradientTransform="matrix(-0.46, -0.89, -0.89, 0.46, 1284.81, -2170.61)" xlink:href="#linear-gradient"/><linearGradient id="linear-gradient-40" x1="-2238.7" y1="1656.98" x2="-2199.03" y2="1693.65" gradientTransform="matrix(-0.46, -0.89, -0.89, 0.46, 1284.81, -2170.61)" xlink:href="#linear-gradient"/><linearGradient id="linear-gradient-41" x1="-2234.13" y1="1659.21" x2="-2194.88" y2="1695.49" gradientTransform="matrix(-0.46, -0.89, -0.89, 0.46, 1284.81, -2170.61)" xlink:href="#linear-gradient"/><linearGradient id="linear-gradient-42" x1="-2224.55" y1="1661.23" x2="-2186.04" y2="1696.82" gradientTransform="matrix(-0.46, -0.89, -0.89, 0.46, 1284.81, -2170.61)" xlink:href="#linear-gradient"/><linearGradient id="linear-gradient-43" x1="-2237.71" y1="1645.45" x2="-2197.36" y2="1682.74" gradientTransform="matrix(-0.46, -0.89, -0.89, 0.46, 1284.81, -2170.61)" xlink:href="#linear-gradient"/><linearGradient id="linear-gradient-44" x1="-2219.59" y1="1667.71" x2="-2181.8" y2="1702.64" gradientTransform="matrix(-0.46, -0.89, -0.89, 0.46, 1284.81, -2170.61)" xlink:href="#linear-gradient"/><linearGradient id="linear-gradient-45" x1="3603.9" y1="1227.69" x2="3643.27" y2="1264.08" gradientTransform="matrix(0.48, 0.88, 0.88, -0.48, 858.75, -1065.62)" xlink:href="#linear-gradient"/><linearGradient id="linear-gradient-46" x1="-2230.94" y1="1651.04" x2="-2191.44" y2="1687.55" gradientTransform="matrix(-0.46, -0.89, -0.89, 0.46, 1284.81, -2170.61)" xlink:href="#linear-gradient"/><linearGradient id="linear-gradient-47" x1="-1574.13" y1="2188.89" x2="-1535.75" y2="2224.36" gradientTransform="matrix(-0.68, -0.73, -0.73, 0.68, 1126.82, -2209.82)" xlink:href="#linear-gradient"/><linearGradient id="linear-gradient-48" x1="-565.76" y1="2763.7" x2="-528.34" y2="2798.28" gradientTransform="matrix(-0.89, -0.47, -0.47, 0.89, 925.26, -2206.82)" xlink:href="#linear-gradient"/><linearGradient id="linear-gradient-49" x1="-1904.85" y1="1964.82" x2="-1866.34" y2="2000.41" gradientTransform="matrix(-0.59, -0.81, -0.81, 0.59, 1203.66, -2214.55)" xlink:href="#linear-gradient"/><linearGradient id="linear-gradient-50" x1="2267.99" y1="4410.08" x2="2302.83" y2="4442.28" gradientTransform="matrix(0.84, 0.54, -0.54, 0.84, 1629.99, -1769.78)" xlink:href="#linear-gradient"/><linearGradient id="linear-gradient-51" x1="-2185.24" y1="1706.52" x2="-2152.05" y2="1737.19" gradientTransform="matrix(-0.46, -0.89, -0.89, 0.46, 1284.81, -2170.61)" xlink:href="#linear-gradient"/><linearGradient id="linear-gradient-52" x1="141.06" y1="159.22" x2="177.05" y2="192.48" gradientTransform="translate(-85.12 108.1) rotate(-13.66)" xlink:href="#linear-gradient"/><linearGradient id="linear-gradient-53" x1="-2220.87" y1="1671.52" x2="-2183.22" y2="1706.32" gradientTransform="matrix(-0.46, -0.89, -0.89, 0.46, 1284.81, -2170.61)" xlink:href="#linear-gradient"/><radialGradient id="radial-gradient" cx="-1775.13" cy="1959.86" r="25.53" gradientTransform="matrix(-0.59, -0.82, -0.89, 0.58, 1139.77, -2173.84)" gradientUnits="userSpaceOnUse"><stop offset="0" stop-color="#fee700"/><stop offset="0.02" stop-color="#fedc06"/><stop offset="0.06" stop-color="#ffcf0e"/><stop offset="0.11" stop-color="#ffc712"/><stop offset="0.21" stop-color="#ffc513"/><stop offset="0.29" stop-color="#fba217"/><stop offset="0.41" stop-color="#f6791c"/><stop offset="0.52" stop-color="#f3581f"/><stop offset="0.63" stop-color="#f04022"/><stop offset="0.73" stop-color="#ef3223"/><stop offset="0.82" stop-color="#ee2d24"/></radialGradient><radialGradient id="radial-gradient-2" cx="-1943.16" cy="1778.39" r="30.03" gradientTransform="matrix(-0.48, -0.88, -0.96, 0.48, 1218.72, -2154.55)" gradientUnits="userSpaceOnUse"><stop offset="0" stop-color="#f7b817"/><stop offset="0" stop-color="#f4a91b"/><stop offset="0" stop-color="#f19c1e"/><stop offset="0" stop-color="#ef9420"/><stop offset="0" stop-color="#ef9221"/><stop offset="0.19" stop-color="#ee8e21"/><stop offset="0.35" stop-color="#ea8322"/><stop offset="0.52" stop-color="#e37122"/><stop offset="0.67" stop-color="#d95724"/><stop offset="0.82" stop-color="#cd3625"/><stop offset="0.91" stop-color="#c52126"/></radialGradient><radialGradient id="radial-gradient-3" cx="-1775.08" cy="1966.21" r="9.64" gradientTransform="matrix(-0.59, -0.82, -0.89, 0.58, 1139.77, -2173.84)" gradientUnits="userSpaceOnUse"><stop offset="0.01" stop-color="#83d2e1"/><stop offset="0.15" stop-color="#78d0de"/><stop offset="0.39" stop-color="#5ccbd7"/><stop offset="0.71" stop-color="#2fc2cc"/><stop offset="0.99" stop-color="#01bac1"/></radialGradient><radialGradient id="radial-gradient-4" cx="-1324.45" cy="2297.26" r="3.06" gradientTransform="matrix(-0.78, -0.58, -0.68, 0.8, 959.32, -2168.37)" gradientUnits="userSpaceOnUse"><stop offset="0" stop-color="#4354a4"/><stop offset="0.32" stop-color="#31397e"/><stop offset="0.65" stop-color="#22235f"/><stop offset="0.83" stop-color="#1c1a53"/></radialGradient></defs><title>vapuhu</title><g class="cls-1"><g id="Layer_1" data-name="Layer 1"><path class="cls-2" d="M162.35,328.43c.41,0,.64.21.65.55a.52.52,0,0,1-.57.55c-.37,0-.64-.16-.66-.52s.22-.53.58-.58" transform="translate(-155.58 -320.99)"/><path class="cls-2" d="M167.21,329.74c.4.07.63.26.61.61a.52.52,0,0,1-.62.5c-.37,0-.63-.2-.61-.56s.29-.5.62-.55" transform="translate(-155.58 -320.99)"/><path class="cls-2" d="M164.62,330.3a.63.63,0,1,1-.64-.55.58.58,0,0,1,.64.55" transform="translate(-155.58 -320.99)"/><path class="cls-2" d="M161.4,330.29a.53.53,0,0,1-.57.56c-.38,0-.65-.17-.66-.52a.53.53,0,0,1,.59-.58.58.58,0,0,1,.64.54" transform="translate(-155.58 -320.99)"/><path class="cls-2" d="M164.62,327.66a.58.58,0,0,1-.66.54.53.53,0,0,1-.58-.54.55.55,0,0,1,.62-.56.57.57,0,0,1,.62.56" transform="translate(-155.58 -320.99)"/><path class="cls-2" d="M164.61,328.92a.56.56,0,0,1-.59.61c-.39,0-.64-.2-.64-.54s.23-.55.62-.55a.54.54,0,0,1,.61.48" transform="translate(-155.58 -320.99)"/><path class="cls-2" d="M165,329a.52.52,0,0,1,.56-.55c.38,0,.65.16.66.51a.54.54,0,0,1-.59.58A.56.56,0,0,1,165,329" transform="translate(-155.58 -320.99)"/><path class="cls-2" d="M161.78,330.31a.58.58,0,0,1,.62-.56.55.55,0,0,1,.61.57.56.56,0,0,1-.65.53.54.54,0,0,1-.58-.54" transform="translate(-155.58 -320.99)"/><path class="cls-2" d="M165,330.31a.58.58,0,0,1,.63-.56.57.57,0,0,1,.6.54c0,.35-.25.55-.64.55a.53.53,0,0,1-.59-.53" transform="translate(-155.58 -320.99)"/><path class="cls-3" d="M162.35,333.59c.41,0,.64.22.65.55a.52.52,0,0,1-.57.55c-.37,0-.64-.16-.66-.52s.22-.53.58-.58" transform="translate(-155.58 -320.99)"/><path class="cls-3" d="M167.21,334.9c.4.07.63.27.61.61a.53.53,0,0,1-.62.51c-.37,0-.63-.21-.61-.56s.29-.5.62-.56" transform="translate(-155.58 -320.99)"/><path class="cls-3" d="M164.62,335.46a.63.63,0,0,1-1.25,0,.56.56,0,0,1,.61-.53.57.57,0,0,1,.64.54" transform="translate(-155.58 -320.99)"/><path class="cls-3" d="M161.4,335.46a.54.54,0,0,1-.57.56c-.38,0-.65-.18-.66-.52a.55.55,0,0,1,.59-.59.58.58,0,0,1,.64.55" transform="translate(-155.58 -320.99)"/><path class="cls-3" d="M164.62,332.82a.58.58,0,0,1-.66.54.53.53,0,0,1-.58-.54.55.55,0,0,1,.62-.56.57.57,0,0,1,.62.56" transform="translate(-155.58 -320.99)"/><path class="cls-3" d="M164.61,334.08a.56.56,0,0,1-.59.61c-.39,0-.64-.2-.64-.54s.23-.54.62-.55a.54.54,0,0,1,.61.48" transform="translate(-155.58 -320.99)"/><path class="cls-3" d="M165,334.15a.53.53,0,0,1,.56-.55c.38,0,.65.17.66.51a.53.53,0,0,1-.59.58.56.56,0,0,1-.63-.54" transform="translate(-155.58 -320.99)"/><path class="cls-3" d="M161.78,335.48a.57.57,0,0,1,.62-.56.54.54,0,0,1,.61.56.56.56,0,0,1-.65.53.53.53,0,0,1-.58-.53" transform="translate(-155.58 -320.99)"/><path class="cls-3" d="M165,335.47a.57.57,0,0,1,.63-.55.55.55,0,0,1,.6.53c0,.35-.25.55-.64.55a.52.52,0,0,1-.59-.53" transform="translate(-155.58 -320.99)"/><path class="cls-2" d="M162.35,338.11c.41,0,.64.21.65.55a.52.52,0,0,1-.57.55c-.37,0-.64-.16-.66-.52s.22-.53.58-.58" transform="translate(-155.58 -320.99)"/><path class="cls-2" d="M167.21,339.42c.4.07.63.26.61.61a.52.52,0,0,1-.62.5c-.37,0-.63-.2-.61-.56s.29-.5.62-.55" transform="translate(-155.58 -320.99)"/><path class="cls-2" d="M164.62,340a.63.63,0,1,1-.64-.55.58.58,0,0,1,.64.55" transform="translate(-155.58 -320.99)"/><path class="cls-2" d="M161.4,340a.53.53,0,0,1-.57.56c-.38,0-.65-.17-.66-.52a.53.53,0,0,1,.59-.58.58.58,0,0,1,.64.54" transform="translate(-155.58 -320.99)"/><path class="cls-2" d="M164.62,337.34a.58.58,0,0,1-.66.54.53.53,0,0,1-.58-.54.55.55,0,0,1,.62-.56.57.57,0,0,1,.62.56" transform="translate(-155.58 -320.99)"/><path class="cls-2" d="M164.61,338.6a.56.56,0,0,1-.59.61c-.39,0-.64-.2-.64-.54s.23-.55.62-.55a.54.54,0,0,1,.61.48" transform="translate(-155.58 -320.99)"/><path class="cls-2" d="M165,338.67a.52.52,0,0,1,.56-.55c.38,0,.65.16.66.51a.54.54,0,0,1-.59.58.56.56,0,0,1-.63-.54" transform="translate(-155.58 -320.99)"/><path class="cls-2" d="M161.78,340a.58.58,0,0,1,.62-.56.55.55,0,0,1,.61.57.56.56,0,0,1-.65.53.54.54,0,0,1-.58-.54" transform="translate(-155.58 -320.99)"/><path class="cls-2" d="M165,340a.58.58,0,0,1,.63-.56.57.57,0,0,1,.6.54c0,.35-.25.55-.64.55A.53.53,0,0,1,165,340" transform="translate(-155.58 -320.99)"/><path class="cls-3" d="M162.35,342.62c.41,0,.64.22.65.56a.52.52,0,0,1-.57.55c-.37,0-.64-.17-.66-.52s.22-.53.58-.59" transform="translate(-155.58 -320.99)"/><path class="cls-3" d="M167.21,343.93c.4.08.63.27.61.62a.53.53,0,0,1-.62.5c-.37,0-.63-.2-.61-.56s.29-.5.62-.56" transform="translate(-155.58 -320.99)"/><path class="cls-3" d="M164.62,344.5a.63.63,0,0,1-1.25,0c0-.33.26-.51.61-.53a.58.58,0,0,1,.64.55" transform="translate(-155.58 -320.99)"/><path class="cls-3" d="M161.4,344.49a.54.54,0,0,1-.57.56c-.38,0-.65-.17-.66-.52a.53.53,0,0,1,.59-.58.58.58,0,0,1,.64.54" transform="translate(-155.58 -320.99)"/><path class="cls-3" d="M164.62,341.85a.58.58,0,0,1-.66.55.55.55,0,1,1,0-1.1.57.57,0,0,1,.62.55" transform="translate(-155.58 -320.99)"/><path class="cls-3" d="M164.61,343.12a.57.57,0,0,1-.59.61c-.39,0-.64-.2-.64-.54s.23-.55.62-.56a.56.56,0,0,1,.61.49" transform="translate(-155.58 -320.99)"/><path class="cls-3" d="M165,343.19a.54.54,0,0,1,.56-.56c.38,0,.65.17.66.52a.54.54,0,0,1-.59.58.56.56,0,0,1-.63-.54" transform="translate(-155.58 -320.99)"/><path class="cls-3" d="M161.78,344.51a.57.57,0,0,1,.62-.56.55.55,0,0,1,.61.57c0,.33-.27.53-.65.53a.54.54,0,0,1-.58-.54" transform="translate(-155.58 -320.99)"/><path class="cls-3" d="M165,344.51a.57.57,0,0,1,.63-.56.56.56,0,0,1,.6.54c0,.35-.25.54-.64.55a.53.53,0,0,1-.59-.53" transform="translate(-155.58 -320.99)"/><path class="cls-2" d="M162.35,347.14c.41,0,.64.22.65.55a.52.52,0,0,1-.57.55c-.37,0-.64-.16-.66-.52s.22-.52.58-.58" transform="translate(-155.58 -320.99)"/><path class="cls-2" d="M167.21,348.45c.4.07.63.27.61.61a.53.53,0,0,1-.62.51c-.37,0-.63-.21-.61-.56s.29-.5.62-.56" transform="translate(-155.58 -320.99)"/><path class="cls-2" d="M164.62,349a.63.63,0,1,1-.64-.54.56.56,0,0,1,.64.54" transform="translate(-155.58 -320.99)"/><path class="cls-2" d="M161.4,349a.54.54,0,0,1-.57.56c-.38,0-.65-.18-.66-.52a.55.55,0,0,1,.59-.59.59.59,0,0,1,.64.55" transform="translate(-155.58 -320.99)"/><path class="cls-2" d="M164.62,346.37a.58.58,0,0,1-.66.54.53.53,0,0,1-.58-.53.54.54,0,0,1,.62-.56.57.57,0,0,1,.62.55" transform="translate(-155.58 -320.99)"/><path class="cls-2" d="M164.61,347.63a.56.56,0,0,1-.59.61.54.54,0,0,1-.64-.53c0-.34.23-.55.62-.56a.54.54,0,0,1,.61.48" transform="translate(-155.58 -320.99)"/><path class="cls-2" d="M165,347.7a.53.53,0,0,1,.56-.55c.38,0,.65.17.66.51a.55.55,0,0,1-.59.59.57.57,0,0,1-.63-.55" transform="translate(-155.58 -320.99)"/><path class="cls-2" d="M161.78,349a.57.57,0,0,1,.62-.56.54.54,0,0,1,.61.56c0,.34-.27.54-.65.54a.55.55,0,0,1-.58-.54" transform="translate(-155.58 -320.99)"/><path class="cls-2" d="M165,349a.57.57,0,0,1,.63-.55.55.55,0,0,1,.6.54c0,.34-.25.54-.64.55A.53.53,0,0,1,165,349" transform="translate(-155.58 -320.99)"/><path class="cls-3" d="M162.35,351.66c.41,0,.64.22.65.55a.52.52,0,0,1-.57.55c-.37,0-.64-.16-.66-.52s.22-.53.58-.58" transform="translate(-155.58 -320.99)"/><path class="cls-3" d="M167.21,353c.4.07.63.27.61.61a.53.53,0,0,1-.62.51c-.37,0-.63-.21-.61-.56s.29-.5.62-.56" transform="translate(-155.58 -320.99)"/><path class="cls-3" d="M164.62,353.53a.63.63,0,0,1-1.25,0A.56.56,0,0,1,164,353a.57.57,0,0,1,.64.54" transform="translate(-155.58 -320.99)"/><path class="cls-3" d="M161.4,353.53a.53.53,0,0,1-.57.55c-.38,0-.65-.17-.66-.51a.54.54,0,0,1,.59-.59.58.58,0,0,1,.64.55" transform="translate(-155.58 -320.99)"/><path class="cls-3" d="M164.62,350.89a.58.58,0,0,1-.66.54.53.53,0,0,1-.58-.54.55.55,0,0,1,.62-.56.57.57,0,0,1,.62.56" transform="translate(-155.58 -320.99)"/><path class="cls-3" d="M164.61,352.15a.56.56,0,0,1-.59.61c-.39,0-.64-.2-.64-.54s.23-.55.62-.55a.54.54,0,0,1,.61.48" transform="translate(-155.58 -320.99)"/><path class="cls-3" d="M165,352.22a.53.53,0,0,1,.56-.55c.38,0,.65.17.66.51a.53.53,0,0,1-.59.58.56.56,0,0,1-.63-.54" transform="translate(-155.58 -320.99)"/><path class="cls-3" d="M161.78,353.55a.57.57,0,0,1,.62-.56.54.54,0,0,1,.61.56.56.56,0,0,1-.65.53.53.53,0,0,1-.58-.53" transform="translate(-155.58 -320.99)"/><path class="cls-3" d="M165,353.54a.57.57,0,0,1,.63-.55.55.55,0,0,1,.6.53c0,.35-.25.55-.64.55a.53.53,0,0,1-.59-.53" transform="translate(-155.58 -320.99)"/><path class="cls-2" d="M162.35,357.36c.41,0,.64.22.65.55a.52.52,0,0,1-.57.55c-.37,0-.64-.16-.66-.52s.22-.53.58-.58" transform="translate(-155.58 -320.99)"/><path class="cls-2" d="M167.21,358.67c.4.07.63.27.61.61a.53.53,0,0,1-.62.51c-.37,0-.63-.21-.61-.56s.29-.5.62-.56" transform="translate(-155.58 -320.99)"/><path class="cls-2" d="M164.62,359.23a.63.63,0,0,1-1.25,0,.56.56,0,0,1,.61-.53.57.57,0,0,1,.64.54" transform="translate(-155.58 -320.99)"/><path class="cls-2" d="M161.4,359.23a.54.54,0,0,1-.57.56c-.38,0-.65-.18-.66-.52a.55.55,0,0,1,.59-.59.58.58,0,0,1,.64.55" transform="translate(-155.58 -320.99)"/><path class="cls-2" d="M164.62,356.59a.58.58,0,0,1-.66.54.53.53,0,0,1-.58-.54A.55.55,0,0,1,164,356a.58.58,0,0,1,.62.56" transform="translate(-155.58 -320.99)"/><path class="cls-2" d="M164.61,357.85a.56.56,0,0,1-.59.61.54.54,0,0,1-.64-.53c0-.34.23-.55.62-.56a.54.54,0,0,1,.61.48" transform="translate(-155.58 -320.99)"/><path class="cls-2" d="M165,357.92a.53.53,0,0,1,.56-.55c.38,0,.65.17.66.51a.53.53,0,0,1-.59.58.56.56,0,0,1-.63-.54" transform="translate(-155.58 -320.99)"/><path class="cls-2" d="M161.78,359.25a.57.57,0,0,1,.62-.56.54.54,0,0,1,.61.56c0,.34-.27.54-.65.54a.55.55,0,0,1-.58-.54" transform="translate(-155.58 -320.99)"/><path class="cls-2" d="M165,359.24a.57.57,0,0,1,.63-.55.55.55,0,0,1,.6.53c0,.35-.25.55-.64.55a.52.52,0,0,1-.59-.53" transform="translate(-155.58 -320.99)"/><path class="cls-3" d="M162.35,362.52c.41,0,.64.22.65.56a.52.52,0,0,1-.57.55c-.37,0-.64-.17-.66-.53s.22-.52.58-.58" transform="translate(-155.58 -320.99)"/><path class="cls-3" d="M167.21,363.83c.4.08.63.27.61.62a.53.53,0,0,1-.62.5c-.37,0-.63-.2-.61-.56s.29-.5.62-.56" transform="translate(-155.58 -320.99)"/><path class="cls-3" d="M164.62,364.4a.63.63,0,1,1-.64-.55.57.57,0,0,1,.64.55" transform="translate(-155.58 -320.99)"/><path class="cls-3" d="M161.4,364.39a.54.54,0,0,1-.57.56c-.38,0-.65-.18-.66-.52a.53.53,0,0,1,.59-.58.58.58,0,0,1,.64.54" transform="translate(-155.58 -320.99)"/><path class="cls-3" d="M164.62,361.75a.58.58,0,0,1-.66.55.55.55,0,1,1,0-1.1.57.57,0,0,1,.62.55" transform="translate(-155.58 -320.99)"/><path class="cls-3" d="M164.61,363a.57.57,0,0,1-.59.62c-.39,0-.64-.2-.64-.54s.23-.55.62-.56a.55.55,0,0,1,.61.48" transform="translate(-155.58 -320.99)"/><path class="cls-3" d="M165,363.09a.54.54,0,0,1,.56-.56c.38,0,.65.17.66.52a.54.54,0,0,1-.59.58.57.57,0,0,1-.63-.54" transform="translate(-155.58 -320.99)"/><path class="cls-3" d="M161.78,364.41a.57.57,0,0,1,.62-.56.55.55,0,0,1,.61.56c0,.34-.27.54-.65.54a.54.54,0,0,1-.58-.54" transform="translate(-155.58 -320.99)"/><path class="cls-3" d="M165,364.4a.57.57,0,0,1,.63-.55.56.56,0,0,1,.6.54c0,.34-.25.54-.64.55a.53.53,0,0,1-.59-.54" transform="translate(-155.58 -320.99)"/><path class="cls-2" d="M162.35,367c.41,0,.64.22.65.55a.52.52,0,0,1-.57.55c-.37,0-.64-.16-.66-.52s.22-.53.58-.58" transform="translate(-155.58 -320.99)"/><path class="cls-2" d="M167.21,368.35c.4.07.63.27.61.61a.53.53,0,0,1-.62.51c-.37,0-.63-.21-.61-.56s.29-.5.62-.56" transform="translate(-155.58 -320.99)"/><path class="cls-2" d="M164.62,368.91a.63.63,0,0,1-1.25,0,.56.56,0,0,1,.61-.53.57.57,0,0,1,.64.54" transform="translate(-155.58 -320.99)"/><path class="cls-2" d="M161.4,368.91a.54.54,0,0,1-.57.56c-.38,0-.65-.18-.66-.52a.55.55,0,0,1,.59-.59.58.58,0,0,1,.64.55" transform="translate(-155.58 -320.99)"/><path class="cls-2" d="M164.62,366.27a.58.58,0,0,1-.66.54.53.53,0,0,1-.58-.54.55.55,0,0,1,.62-.56.58.58,0,0,1,.62.56" transform="translate(-155.58 -320.99)"/><path class="cls-2" d="M164.61,367.53a.56.56,0,0,1-.59.61.54.54,0,0,1-.64-.53c0-.34.23-.55.62-.56a.54.54,0,0,1,.61.48" transform="translate(-155.58 -320.99)"/><path class="cls-2" d="M165,367.6a.53.53,0,0,1,.56-.55c.38,0,.65.17.66.51a.53.53,0,0,1-.59.58.56.56,0,0,1-.63-.54" transform="translate(-155.58 -320.99)"/><path class="cls-2" d="M161.78,368.93a.57.57,0,0,1,.62-.56.54.54,0,0,1,.61.56c0,.34-.27.54-.65.54a.55.55,0,0,1-.58-.54" transform="translate(-155.58 -320.99)"/><path class="cls-2" d="M165,368.92a.57.57,0,0,1,.63-.55.55.55,0,0,1,.6.53c0,.35-.25.55-.64.55a.52.52,0,0,1-.59-.53" transform="translate(-155.58 -320.99)"/><path class="cls-3" d="M162.35,371.56c.41,0,.64.21.65.55a.52.52,0,0,1-.57.55c-.37,0-.64-.16-.66-.52s.22-.53.58-.58" transform="translate(-155.58 -320.99)"/><path class="cls-3" d="M167.21,372.87c.4.07.63.27.61.61a.52.52,0,0,1-.62.5c-.37,0-.63-.2-.61-.56s.29-.5.62-.55" transform="translate(-155.58 -320.99)"/><path class="cls-3" d="M164.62,373.43a.63.63,0,1,1-.64-.55.58.58,0,0,1,.64.55" transform="translate(-155.58 -320.99)"/><path class="cls-3" d="M161.4,373.42a.53.53,0,0,1-.57.56c-.38,0-.65-.17-.66-.52a.53.53,0,0,1,.59-.58.58.58,0,0,1,.64.54" transform="translate(-155.58 -320.99)"/><path class="cls-3" d="M164.62,370.79a.58.58,0,0,1-.66.54.53.53,0,0,1-.58-.54.55.55,0,0,1,.62-.56.57.57,0,0,1,.62.56" transform="translate(-155.58 -320.99)"/><path class="cls-3" d="M164.61,372.05a.56.56,0,0,1-.59.61c-.39,0-.64-.2-.64-.54s.23-.55.62-.55a.54.54,0,0,1,.61.48" transform="translate(-155.58 -320.99)"/><path class="cls-3" d="M165,372.12a.53.53,0,0,1,.56-.55c.38,0,.65.16.66.51a.54.54,0,0,1-.59.58.56.56,0,0,1-.63-.54" transform="translate(-155.58 -320.99)"/><path class="cls-3" d="M161.78,373.44a.57.57,0,0,1,.62-.55.54.54,0,0,1,.61.56.56.56,0,0,1-.65.53.54.54,0,0,1-.58-.54" transform="translate(-155.58 -320.99)"/><path class="cls-3" d="M165,373.44a.58.58,0,0,1,.63-.56.57.57,0,0,1,.6.54c0,.35-.25.55-.64.55a.53.53,0,0,1-.59-.53" transform="translate(-155.58 -320.99)"/><path class="cls-2" d="M162.35,376.07c.41,0,.64.22.65.56a.52.52,0,0,1-.57.55c-.37,0-.64-.17-.66-.52s.22-.53.58-.59" transform="translate(-155.58 -320.99)"/><path class="cls-2" d="M167.21,377.38c.4.08.63.27.61.62s-.25.51-.62.5-.63-.2-.61-.56.29-.5.62-.56" transform="translate(-155.58 -320.99)"/><path class="cls-2" d="M164.62,378a.63.63,0,0,1-1.25,0c0-.33.26-.51.61-.53a.58.58,0,0,1,.64.55" transform="translate(-155.58 -320.99)"/><path class="cls-2" d="M161.4,377.94a.53.53,0,0,1-.57.56c-.38,0-.65-.17-.66-.52a.53.53,0,0,1,.59-.58.58.58,0,0,1,.64.54" transform="translate(-155.58 -320.99)"/><path class="cls-2" d="M164.62,375.31a.58.58,0,0,1-.66.54.55.55,0,1,1,0-1.1.57.57,0,0,1,.62.56" transform="translate(-155.58 -320.99)"/><path class="cls-2" d="M164.61,376.57a.56.56,0,0,1-.59.61c-.39,0-.64-.2-.64-.54s.23-.55.62-.56a.56.56,0,0,1,.61.49" transform="translate(-155.58 -320.99)"/><path class="cls-2" d="M165,376.64a.52.52,0,0,1,.56-.55c.38,0,.65.16.66.51a.54.54,0,0,1-.59.58.56.56,0,0,1-.63-.54" transform="translate(-155.58 -320.99)"/><path class="cls-2" d="M161.78,378a.57.57,0,0,1,.62-.56.55.55,0,0,1,.61.57.56.56,0,0,1-.65.53.54.54,0,0,1-.58-.54" transform="translate(-155.58 -320.99)"/><path class="cls-2" d="M165,378a.57.57,0,0,1,.63-.56.56.56,0,0,1,.6.54c0,.35-.25.54-.64.55A.53.53,0,0,1,165,378" transform="translate(-155.58 -320.99)"/><path class="cls-3" d="M162.35,380.59c.41,0,.64.22.65.56a.52.52,0,0,1-.57.55c-.37,0-.64-.17-.66-.53s.22-.52.58-.58" transform="translate(-155.58 -320.99)"/><path class="cls-3" d="M167.21,381.9c.4.07.63.27.61.62a.53.53,0,0,1-.62.5c-.37,0-.63-.2-.61-.56s.29-.5.62-.56" transform="translate(-155.58 -320.99)"/><path class="cls-3" d="M164.62,382.47a.63.63,0,1,1-.64-.55.57.57,0,0,1,.64.55" transform="translate(-155.58 -320.99)"/><path class="cls-3" d="M161.4,382.46a.54.54,0,0,1-.57.56c-.38,0-.65-.18-.66-.52a.55.55,0,0,1,.59-.59.59.59,0,0,1,.64.55" transform="translate(-155.58 -320.99)"/><path class="cls-3" d="M164.62,379.82a.57.57,0,0,1-.66.54.53.53,0,0,1-.58-.53.54.54,0,0,1,.62-.56.57.57,0,0,1,.62.55" transform="translate(-155.58 -320.99)"/><path class="cls-3" d="M164.61,381.08a.57.57,0,0,1-.59.62.55.55,0,0,1-.64-.54c0-.34.23-.55.62-.56a.54.54,0,0,1,.61.48" transform="translate(-155.58 -320.99)"/><path class="cls-3" d="M165,381.15a.53.53,0,0,1,.56-.55c.38,0,.65.17.66.51a.55.55,0,0,1-.59.59.57.57,0,0,1-.63-.55" transform="translate(-155.58 -320.99)"/><path class="cls-3" d="M161.78,382.48a.57.57,0,0,1,.62-.56.54.54,0,0,1,.61.56c0,.34-.27.54-.65.54a.54.54,0,0,1-.58-.54" transform="translate(-155.58 -320.99)"/><path class="cls-3" d="M165,382.47a.57.57,0,0,1,.63-.55.56.56,0,0,1,.6.54c0,.34-.25.54-.64.55a.53.53,0,0,1-.59-.54" transform="translate(-155.58 -320.99)"/><text class="cls-4" transform="translate(39.21 144.86)">GYM MANAGEMEN<tspan class="cls-5" x="145.98" y="0">T</tspan><tspan x="155.49" y="0" xml:space="preserve"> SOFT</tspan><tspan class="cls-6" x="202.66" y="0">W</tspan><tspan class="cls-7" x="217.19" y="0">ARE</tspan></text><path class="cls-8" d="M171.4,328.92v52.26c0,2.65-3.33,4.82-7.41,4.82s-7.41-2.17-7.41-4.82V328.92a4.25,4.25,0,0,1,2.29-3.47l5.12-3.27,4.56,2.95a6.19,6.19,0,0,1,.67.39A4.19,4.19,0,0,1,171.4,328.92Z" transform="translate(-155.58 -320.99)"/><path class="cls-8" d="M306.26,328.92v52.26c0,2.65-3.33,4.82-7.41,4.82s-7.41-2.17-7.41-4.82V328.92a4.25,4.25,0,0,1,2.29-3.47l5.12-3.27,4.56,2.95a6.19,6.19,0,0,1,.67.39A4.19,4.19,0,0,1,306.26,328.92Z" transform="translate(-155.58 -320.99)"/><path class="cls-2" d="M297.21,328.43c.41,0,.64.21.65.55a.52.52,0,0,1-.57.55c-.37,0-.64-.16-.66-.52s.22-.53.58-.58" transform="translate(-155.58 -320.99)"/><path class="cls-2" d="M302.07,329.74c.4.07.63.26.61.61a.53.53,0,0,1-.62.5c-.38,0-.63-.2-.62-.56s.3-.5.63-.55" transform="translate(-155.58 -320.99)"/><path class="cls-2" d="M299.47,330.3a.56.56,0,0,1-.63.56.56.56,0,0,1-.61-.58c0-.32.26-.51.61-.53a.56.56,0,0,1,.63.55" transform="translate(-155.58 -320.99)"/><path class="cls-2" d="M296.26,330.29a.53.53,0,0,1-.57.56c-.38,0-.65-.17-.66-.52a.53.53,0,0,1,.59-.58.59.59,0,0,1,.64.54" transform="translate(-155.58 -320.99)"/><path class="cls-2" d="M299.47,327.66a.57.57,0,0,1-.65.54.53.53,0,0,1-.58-.54.54.54,0,0,1,.61-.56.57.57,0,0,1,.62.56" transform="translate(-155.58 -320.99)"/><path class="cls-2" d="M299.47,328.92a.56.56,0,0,1-.6.61.54.54,0,0,1-.63-.54c0-.33.23-.55.62-.55a.54.54,0,0,1,.61.48" transform="translate(-155.58 -320.99)"/><path class="cls-2" d="M299.86,329a.52.52,0,0,1,.56-.55c.38,0,.65.16.66.51a.54.54,0,0,1-.59.58.56.56,0,0,1-.63-.54" transform="translate(-155.58 -320.99)"/><path class="cls-2" d="M296.64,330.31a.58.58,0,0,1,.62-.56.55.55,0,0,1,.61.57.56.56,0,0,1-.65.53.53.53,0,0,1-.58-.54" transform="translate(-155.58 -320.99)"/><path class="cls-2" d="M299.86,330.31a.57.57,0,0,1,.62-.56.55.55,0,0,1,.6.54c0,.35-.24.55-.63.55a.53.53,0,0,1-.59-.53" transform="translate(-155.58 -320.99)"/><path class="cls-3" d="M297.21,333.59c.41,0,.64.22.65.55a.52.52,0,0,1-.57.55c-.37,0-.64-.16-.66-.52s.22-.53.58-.58" transform="translate(-155.58 -320.99)"/><path class="cls-3" d="M302.07,334.9c.4.07.63.27.61.61a.54.54,0,0,1-.62.51c-.38,0-.63-.21-.62-.56s.3-.5.63-.56" transform="translate(-155.58 -320.99)"/><path class="cls-3" d="M299.47,335.46a.62.62,0,0,1-1.24,0c0-.33.26-.52.61-.53a.55.55,0,0,1,.63.54" transform="translate(-155.58 -320.99)"/><path class="cls-3" d="M296.26,335.46a.54.54,0,0,1-.57.56c-.38,0-.65-.18-.66-.52a.55.55,0,0,1,.59-.59.59.59,0,0,1,.64.55" transform="translate(-155.58 -320.99)"/><path class="cls-3" d="M299.47,332.82a.56.56,0,0,1-.65.54.53.53,0,0,1-.58-.54.54.54,0,0,1,.61-.56.57.57,0,0,1,.62.56" transform="translate(-155.58 -320.99)"/><path class="cls-3" d="M299.47,334.08a.56.56,0,0,1-.6.61.54.54,0,0,1-.63-.54c0-.33.23-.54.62-.55a.54.54,0,0,1,.61.48" transform="translate(-155.58 -320.99)"/><path class="cls-3" d="M299.86,334.15a.53.53,0,0,1,.56-.55c.38,0,.65.17.66.51a.53.53,0,0,1-.59.58.56.56,0,0,1-.63-.54" transform="translate(-155.58 -320.99)"/><path class="cls-3" d="M296.64,335.48a.57.57,0,0,1,.62-.56.54.54,0,0,1,.61.56.56.56,0,0,1-.65.53.53.53,0,0,1-.58-.53" transform="translate(-155.58 -320.99)"/><path class="cls-3" d="M299.86,335.47a.56.56,0,0,1,.62-.55.54.54,0,0,1,.6.53c0,.35-.24.55-.63.55a.52.52,0,0,1-.59-.53" transform="translate(-155.58 -320.99)"/><path class="cls-2" d="M297.21,338.11c.41,0,.64.21.65.55a.52.52,0,0,1-.57.55c-.37,0-.64-.16-.66-.52s.22-.53.58-.58" transform="translate(-155.58 -320.99)"/><path class="cls-2" d="M302.07,339.42c.4.07.63.26.61.61a.53.53,0,0,1-.62.5c-.38,0-.63-.2-.62-.56s.3-.5.63-.55" transform="translate(-155.58 -320.99)"/><path class="cls-2" d="M299.47,340a.56.56,0,0,1-.63.56.56.56,0,0,1-.61-.58c0-.32.26-.51.61-.53a.56.56,0,0,1,.63.55" transform="translate(-155.58 -320.99)"/><path class="cls-2" d="M296.26,340a.53.53,0,0,1-.57.56c-.38,0-.65-.17-.66-.52a.53.53,0,0,1,.59-.58.59.59,0,0,1,.64.54" transform="translate(-155.58 -320.99)"/><path class="cls-2" d="M299.47,337.34a.57.57,0,0,1-.65.54.53.53,0,0,1-.58-.54.54.54,0,0,1,.61-.56.57.57,0,0,1,.62.56" transform="translate(-155.58 -320.99)"/><path class="cls-2" d="M299.47,338.6a.56.56,0,0,1-.6.61.54.54,0,0,1-.63-.54c0-.33.23-.55.62-.55a.54.54,0,0,1,.61.48" transform="translate(-155.58 -320.99)"/><path class="cls-2" d="M299.86,338.67a.52.52,0,0,1,.56-.55c.38,0,.65.16.66.51a.54.54,0,0,1-.59.58.56.56,0,0,1-.63-.54" transform="translate(-155.58 -320.99)"/><path class="cls-2" d="M296.64,340a.58.58,0,0,1,.62-.56.55.55,0,0,1,.61.57.56.56,0,0,1-.65.53.53.53,0,0,1-.58-.54" transform="translate(-155.58 -320.99)"/><path class="cls-2" d="M299.86,340a.57.57,0,0,1,.62-.56.55.55,0,0,1,.6.54c0,.35-.24.55-.63.55a.53.53,0,0,1-.59-.53" transform="translate(-155.58 -320.99)"/><path class="cls-3" d="M297.21,342.62c.41,0,.64.22.65.56a.52.52,0,0,1-.57.55c-.37,0-.64-.17-.66-.52s.22-.53.58-.59" transform="translate(-155.58 -320.99)"/><path class="cls-3" d="M302.07,343.93c.4.08.63.27.61.62a.54.54,0,0,1-.62.5c-.38,0-.63-.2-.62-.56s.3-.5.63-.56" transform="translate(-155.58 -320.99)"/><path class="cls-3" d="M299.47,344.5a.62.62,0,0,1-1.24,0c0-.33.26-.51.61-.53a.56.56,0,0,1,.63.55" transform="translate(-155.58 -320.99)"/><path class="cls-3" d="M296.26,344.49a.54.54,0,0,1-.57.56c-.38,0-.65-.17-.66-.52a.53.53,0,0,1,.59-.58.58.58,0,0,1,.64.54" transform="translate(-155.58 -320.99)"/><path class="cls-3" d="M299.47,341.85a.57.57,0,0,1-.65.55.55.55,0,1,1,0-1.1.57.57,0,0,1,.62.55" transform="translate(-155.58 -320.99)"/><path class="cls-3" d="M299.47,343.12a.57.57,0,0,1-.6.61.54.54,0,0,1-.63-.54c0-.33.23-.55.62-.56a.56.56,0,0,1,.61.49" transform="translate(-155.58 -320.99)"/><path class="cls-3" d="M299.86,343.19a.54.54,0,0,1,.56-.56c.38,0,.65.17.66.52a.54.54,0,0,1-.59.58.56.56,0,0,1-.63-.54" transform="translate(-155.58 -320.99)"/><path class="cls-3" d="M296.64,344.51a.57.57,0,0,1,.62-.56.55.55,0,0,1,.61.57c0,.33-.27.53-.65.53a.54.54,0,0,1-.58-.54" transform="translate(-155.58 -320.99)"/><path class="cls-3" d="M299.86,344.51a.56.56,0,0,1,.62-.56.55.55,0,0,1,.6.54c0,.35-.24.54-.63.55a.53.53,0,0,1-.59-.53" transform="translate(-155.58 -320.99)"/><path class="cls-2" d="M297.21,347.14c.41,0,.64.22.65.55a.52.52,0,0,1-.57.55c-.37,0-.64-.16-.66-.52s.22-.52.58-.58" transform="translate(-155.58 -320.99)"/><path class="cls-2" d="M302.07,348.45c.4.07.63.27.61.61a.54.54,0,0,1-.62.51c-.38,0-.63-.21-.62-.56s.3-.5.63-.56" transform="translate(-155.58 -320.99)"/><path class="cls-2" d="M299.47,349a.55.55,0,0,1-.63.56.56.56,0,0,1-.61-.57c0-.33.26-.52.61-.53a.55.55,0,0,1,.63.54" transform="translate(-155.58 -320.99)"/><path class="cls-2" d="M296.26,349a.54.54,0,0,1-.57.56c-.38,0-.65-.18-.66-.52a.55.55,0,0,1,.59-.59.6.6,0,0,1,.64.55" transform="translate(-155.58 -320.99)"/><path class="cls-2" d="M299.47,346.37a.56.56,0,0,1-.65.54.53.53,0,0,1-.58-.53.54.54,0,0,1,.61-.56.57.57,0,0,1,.62.55" transform="translate(-155.58 -320.99)"/><path class="cls-2" d="M299.47,347.63a.56.56,0,0,1-.6.61.54.54,0,0,1-.63-.53c0-.34.23-.55.62-.56a.54.54,0,0,1,.61.48" transform="translate(-155.58 -320.99)"/><path class="cls-2" d="M299.86,347.7a.53.53,0,0,1,.56-.55c.38,0,.65.17.66.51a.55.55,0,0,1-.59.59.57.57,0,0,1-.63-.55" transform="translate(-155.58 -320.99)"/><path class="cls-2" d="M296.64,349a.57.57,0,0,1,.62-.56.54.54,0,0,1,.61.56c0,.34-.27.54-.65.54a.54.54,0,0,1-.58-.54" transform="translate(-155.58 -320.99)"/><path class="cls-2" d="M299.86,349a.56.56,0,0,1,.62-.55.54.54,0,0,1,.6.54c0,.34-.24.54-.63.55a.53.53,0,0,1-.59-.54" transform="translate(-155.58 -320.99)"/><path class="cls-3" d="M297.21,351.66c.41,0,.64.22.65.55a.52.52,0,0,1-.57.55c-.37,0-.64-.16-.66-.52s.22-.53.58-.58" transform="translate(-155.58 -320.99)"/><path class="cls-3" d="M302.07,353c.4.07.63.27.61.61a.54.54,0,0,1-.62.51c-.38,0-.63-.21-.62-.56s.3-.5.63-.56" transform="translate(-155.58 -320.99)"/><path class="cls-3" d="M299.47,353.53a.56.56,0,0,1-.63.56.56.56,0,0,1-.61-.57c0-.33.26-.52.61-.53a.55.55,0,0,1,.63.54" transform="translate(-155.58 -320.99)"/><path class="cls-3" d="M296.26,353.53a.53.53,0,0,1-.57.55c-.38,0-.65-.17-.66-.51a.54.54,0,0,1,.59-.59.59.59,0,0,1,.64.55" transform="translate(-155.58 -320.99)"/><path class="cls-3" d="M299.47,350.89a.56.56,0,0,1-.65.54.53.53,0,0,1-.58-.54.54.54,0,0,1,.61-.56.57.57,0,0,1,.62.56" transform="translate(-155.58 -320.99)"/><path class="cls-3" d="M299.47,352.15a.56.56,0,0,1-.6.61.54.54,0,0,1-.63-.54c0-.33.23-.55.62-.55a.54.54,0,0,1,.61.48" transform="translate(-155.58 -320.99)"/><path class="cls-3" d="M299.86,352.22a.53.53,0,0,1,.56-.55c.38,0,.65.17.66.51a.53.53,0,0,1-.59.58.56.56,0,0,1-.63-.54" transform="translate(-155.58 -320.99)"/><path class="cls-3" d="M296.64,353.55a.57.57,0,0,1,.62-.56.54.54,0,0,1,.61.56.56.56,0,0,1-.65.53.53.53,0,0,1-.58-.53" transform="translate(-155.58 -320.99)"/><path class="cls-3" d="M299.86,353.54a.56.56,0,0,1,.62-.55.54.54,0,0,1,.6.53c0,.35-.24.55-.63.55a.53.53,0,0,1-.59-.53" transform="translate(-155.58 -320.99)"/><path class="cls-2" d="M297.21,357.36c.41,0,.64.22.65.55a.52.52,0,0,1-.57.55c-.37,0-.64-.16-.66-.52s.22-.53.58-.58" transform="translate(-155.58 -320.99)"/><path class="cls-2" d="M302.07,358.67c.4.07.63.27.61.61a.54.54,0,0,1-.62.51c-.38,0-.63-.21-.62-.56s.3-.5.63-.56" transform="translate(-155.58 -320.99)"/><path class="cls-2" d="M299.47,359.23a.62.62,0,0,1-1.24,0c0-.33.26-.52.61-.53a.55.55,0,0,1,.63.54" transform="translate(-155.58 -320.99)"/><path class="cls-2" d="M296.26,359.23a.54.54,0,0,1-.57.56c-.38,0-.65-.18-.66-.52a.55.55,0,0,1,.59-.59.59.59,0,0,1,.64.55" transform="translate(-155.58 -320.99)"/><path class="cls-2" d="M299.47,356.59a.56.56,0,0,1-.65.54.53.53,0,0,1-.58-.54.54.54,0,0,1,.61-.56.58.58,0,0,1,.62.56" transform="translate(-155.58 -320.99)"/><path class="cls-2" d="M299.47,357.85a.56.56,0,0,1-.6.61.54.54,0,0,1-.63-.53c0-.34.23-.55.62-.56a.54.54,0,0,1,.61.48" transform="translate(-155.58 -320.99)"/><path class="cls-2" d="M299.86,357.92a.53.53,0,0,1,.56-.55c.38,0,.65.17.66.51a.53.53,0,0,1-.59.58.56.56,0,0,1-.63-.54" transform="translate(-155.58 -320.99)"/><path class="cls-2" d="M296.64,359.25a.57.57,0,0,1,.62-.56.54.54,0,0,1,.61.56c0,.34-.27.54-.65.54a.54.54,0,0,1-.58-.54" transform="translate(-155.58 -320.99)"/><path class="cls-2" d="M299.86,359.24a.56.56,0,0,1,.62-.55.54.54,0,0,1,.6.53c0,.35-.24.55-.63.55a.52.52,0,0,1-.59-.53" transform="translate(-155.58 -320.99)"/><path class="cls-3" d="M297.21,362.52c.41,0,.64.22.65.56a.52.52,0,0,1-.57.55c-.37,0-.64-.17-.66-.53s.22-.52.58-.58" transform="translate(-155.58 -320.99)"/><path class="cls-3" d="M302.07,363.83c.4.08.63.27.61.62a.54.54,0,0,1-.62.5c-.38,0-.63-.2-.62-.56s.3-.5.63-.56" transform="translate(-155.58 -320.99)"/><path class="cls-3" d="M299.47,364.4a.62.62,0,0,1-1.24,0c0-.33.26-.52.61-.53a.56.56,0,0,1,.63.55" transform="translate(-155.58 -320.99)"/><path class="cls-3" d="M296.26,364.39a.54.54,0,0,1-.57.56c-.38,0-.65-.18-.66-.52a.53.53,0,0,1,.59-.58.58.58,0,0,1,.64.54" transform="translate(-155.58 -320.99)"/><path class="cls-3" d="M299.47,361.75a.57.57,0,0,1-.65.55.55.55,0,1,1,0-1.1.57.57,0,0,1,.62.55" transform="translate(-155.58 -320.99)"/><path class="cls-3" d="M299.47,363a.58.58,0,0,1-.6.62.54.54,0,0,1-.63-.54c0-.34.23-.55.62-.56a.55.55,0,0,1,.61.48" transform="translate(-155.58 -320.99)"/><path class="cls-3" d="M299.86,363.09a.54.54,0,0,1,.56-.56c.38,0,.65.17.66.52a.54.54,0,0,1-.59.58.57.57,0,0,1-.63-.54" transform="translate(-155.58 -320.99)"/><path class="cls-3" d="M296.64,364.41a.57.57,0,0,1,.62-.56.55.55,0,0,1,.61.56c0,.34-.27.54-.65.54a.54.54,0,0,1-.58-.54" transform="translate(-155.58 -320.99)"/><path class="cls-3" d="M299.86,364.4a.56.56,0,0,1,.62-.55.55.55,0,0,1,.6.54c0,.34-.24.54-.63.55a.53.53,0,0,1-.59-.54" transform="translate(-155.58 -320.99)"/><path class="cls-2" d="M297.21,367c.41,0,.64.22.65.55a.52.52,0,0,1-.57.55c-.37,0-.64-.16-.66-.52s.22-.53.58-.58" transform="translate(-155.58 -320.99)"/><path class="cls-2" d="M302.07,368.35c.4.07.63.27.61.61a.54.54,0,0,1-.62.51c-.38,0-.63-.21-.62-.56s.3-.5.63-.56" transform="translate(-155.58 -320.99)"/><path class="cls-2" d="M299.47,368.91a.62.62,0,0,1-1.24,0c0-.33.26-.52.61-.53a.55.55,0,0,1,.63.54" transform="translate(-155.58 -320.99)"/><path class="cls-2" d="M296.26,368.91a.54.54,0,0,1-.57.56c-.38,0-.65-.18-.66-.52a.55.55,0,0,1,.59-.59.59.59,0,0,1,.64.55" transform="translate(-155.58 -320.99)"/><path class="cls-2" d="M299.47,366.27a.56.56,0,0,1-.65.54.53.53,0,0,1-.58-.54.54.54,0,0,1,.61-.56.58.58,0,0,1,.62.56" transform="translate(-155.58 -320.99)"/><path class="cls-2" d="M299.47,367.53a.56.56,0,0,1-.6.61.54.54,0,0,1-.63-.53c0-.34.23-.55.62-.56a.54.54,0,0,1,.61.48" transform="translate(-155.58 -320.99)"/><path class="cls-2" d="M299.86,367.6a.53.53,0,0,1,.56-.55c.38,0,.65.17.66.51a.53.53,0,0,1-.59.58.56.56,0,0,1-.63-.54" transform="translate(-155.58 -320.99)"/><path class="cls-2" d="M296.64,368.93a.57.57,0,0,1,.62-.56.54.54,0,0,1,.61.56c0,.34-.27.54-.65.54a.54.54,0,0,1-.58-.54" transform="translate(-155.58 -320.99)"/><path class="cls-2" d="M299.86,368.92a.56.56,0,0,1,.62-.55.54.54,0,0,1,.6.53c0,.35-.24.55-.63.55a.52.52,0,0,1-.59-.53" transform="translate(-155.58 -320.99)"/><path class="cls-3" d="M297.21,371.56c.41,0,.64.21.65.55a.52.52,0,0,1-.57.55c-.37,0-.64-.16-.66-.52s.22-.53.58-.58" transform="translate(-155.58 -320.99)"/><path class="cls-3" d="M302.07,372.87c.4.07.63.27.61.61a.53.53,0,0,1-.62.5c-.38,0-.63-.2-.62-.56s.3-.5.63-.55" transform="translate(-155.58 -320.99)"/><path class="cls-3" d="M299.47,373.43a.56.56,0,0,1-.63.56.56.56,0,0,1-.61-.58c0-.32.26-.51.61-.53a.56.56,0,0,1,.63.55" transform="translate(-155.58 -320.99)"/><path class="cls-3" d="M296.26,373.42a.53.53,0,0,1-.57.56c-.38,0-.65-.17-.66-.52a.53.53,0,0,1,.59-.58.59.59,0,0,1,.64.54" transform="translate(-155.58 -320.99)"/><path class="cls-3" d="M299.47,370.79a.57.57,0,0,1-.65.54.53.53,0,0,1-.58-.54.54.54,0,0,1,.61-.56.57.57,0,0,1,.62.56" transform="translate(-155.58 -320.99)"/><path class="cls-3" d="M299.47,372.05a.56.56,0,0,1-.6.61.54.54,0,0,1-.63-.54c0-.33.23-.55.62-.55a.54.54,0,0,1,.61.48" transform="translate(-155.58 -320.99)"/><path class="cls-3" d="M299.86,372.12a.53.53,0,0,1,.56-.55c.38,0,.65.16.66.51a.54.54,0,0,1-.59.58.56.56,0,0,1-.63-.54" transform="translate(-155.58 -320.99)"/><path class="cls-3" d="M296.64,373.44a.57.57,0,0,1,.62-.55.54.54,0,0,1,.61.56.56.56,0,0,1-.65.53.53.53,0,0,1-.58-.54" transform="translate(-155.58 -320.99)"/><path class="cls-3" d="M299.86,373.44a.57.57,0,0,1,.62-.56.55.55,0,0,1,.6.54c0,.35-.24.55-.63.55a.53.53,0,0,1-.59-.53" transform="translate(-155.58 -320.99)"/><path class="cls-2" d="M297.21,376.07c.41,0,.64.22.65.56a.52.52,0,0,1-.57.55c-.37,0-.64-.17-.66-.52s.22-.53.58-.59" transform="translate(-155.58 -320.99)"/><path class="cls-2" d="M302.07,377.38c.4.08.63.27.61.62a.53.53,0,0,1-.62.5c-.38,0-.63-.2-.62-.56s.3-.5.63-.56" transform="translate(-155.58 -320.99)"/><path class="cls-2" d="M299.47,378a.62.62,0,0,1-1.24,0c0-.33.26-.51.61-.53a.56.56,0,0,1,.63.55" transform="translate(-155.58 -320.99)"/><path class="cls-2" d="M296.26,377.94a.53.53,0,0,1-.57.56c-.38,0-.65-.17-.66-.52a.53.53,0,0,1,.59-.58.58.58,0,0,1,.64.54" transform="translate(-155.58 -320.99)"/><path class="cls-2" d="M299.47,375.31a.57.57,0,0,1-.65.54.55.55,0,1,1,0-1.1.57.57,0,0,1,.62.56" transform="translate(-155.58 -320.99)"/><path class="cls-2" d="M299.47,376.57a.56.56,0,0,1-.6.61.54.54,0,0,1-.63-.54c0-.33.23-.55.62-.56a.56.56,0,0,1,.61.49" transform="translate(-155.58 -320.99)"/><path class="cls-2" d="M299.86,376.64a.52.52,0,0,1,.56-.55c.38,0,.65.16.66.51a.54.54,0,0,1-.59.58.56.56,0,0,1-.63-.54" transform="translate(-155.58 -320.99)"/><path class="cls-2" d="M296.64,378a.57.57,0,0,1,.62-.56.55.55,0,0,1,.61.57.56.56,0,0,1-.65.53.53.53,0,0,1-.58-.54" transform="translate(-155.58 -320.99)"/><path class="cls-2" d="M299.86,378a.56.56,0,0,1,.62-.56.55.55,0,0,1,.6.54c0,.35-.24.54-.63.55a.53.53,0,0,1-.59-.53" transform="translate(-155.58 -320.99)"/><path class="cls-3" d="M297.21,380.59c.41,0,.64.22.65.56a.52.52,0,0,1-.57.55c-.37,0-.64-.17-.66-.53s.22-.52.58-.58" transform="translate(-155.58 -320.99)"/><path class="cls-3" d="M302.07,381.9c.4.07.63.27.61.62a.54.54,0,0,1-.62.5c-.38,0-.63-.2-.62-.56s.3-.5.63-.56" transform="translate(-155.58 -320.99)"/><path class="cls-3" d="M299.47,382.47a.55.55,0,0,1-.63.55.56.56,0,0,1-.61-.57c0-.33.26-.52.61-.53a.56.56,0,0,1,.63.55" transform="translate(-155.58 -320.99)"/><path class="cls-3" d="M296.26,382.46a.54.54,0,0,1-.57.56c-.38,0-.65-.18-.66-.52a.55.55,0,0,1,.59-.59.6.6,0,0,1,.64.55" transform="translate(-155.58 -320.99)"/><path class="cls-3" d="M299.47,379.82a.56.56,0,0,1-.65.54.53.53,0,0,1-.58-.53.54.54,0,0,1,.61-.56.57.57,0,0,1,.62.55" transform="translate(-155.58 -320.99)"/><path class="cls-3" d="M299.47,381.08a.58.58,0,0,1-.6.62.55.55,0,0,1-.63-.54c0-.34.23-.55.62-.56a.54.54,0,0,1,.61.48" transform="translate(-155.58 -320.99)"/><path class="cls-3" d="M299.86,381.15a.53.53,0,0,1,.56-.55c.38,0,.65.17.66.51a.55.55,0,0,1-.59.59.57.57,0,0,1-.63-.55" transform="translate(-155.58 -320.99)"/><path class="cls-3" d="M296.64,382.48a.57.57,0,0,1,.62-.56.54.54,0,0,1,.61.56c0,.34-.27.54-.65.54a.54.54,0,0,1-.58-.54" transform="translate(-155.58 -320.99)"/><path class="cls-3" d="M299.86,382.47a.56.56,0,0,1,.62-.55.55.55,0,0,1,.6.54c0,.34-.24.54-.63.55a.53.53,0,0,1-.59-.54" transform="translate(-155.58 -320.99)"/><rect class="cls-3" x="16.32" y="30.25" width="119.23" height="5.69"/><path class="cls-2" d="M196.29,365c2.48.24,6.3-1.25,8.48.58s.94,5.85,1.28,8.9a147.12,147.12,0,0,0,6.08,28.28,13.32,13.32,0,0,0,5.79,7.34c11,7.32,20.91,6.51,30.49-2.7a8.42,8.42,0,0,0,2-3.4,127,127,0,0,0,7-36.17c.13-2.23.68-2.94,2.79-2.91,4.78.06,9.57,0,14.35,0,1.65,0,2.63.43,2.11,2.3C270,391.13,261,413.83,241.88,430.92c-2.39,2.13-5.22,3.77-7.76,5.74-1.76,1.37-3.22,1.22-5.11,0-10.43-6.52-18.22-15.55-24.64-25.84-8.29-13.31-13.84-27.78-17.88-42.89-.6-2.25-.17-3.08,2.19-3S193.35,365,196.29,365Z" transform="translate(-155.58 -320.99)"/><circle class="cls-3" cx="76.06" cy="71.42" r="13.63"/><text class="cls-9" transform="translate(101.75 117.16)">APUHU</text><path class="cls-10" d="M417.17,440.31c-9,.54-18.16,1-27.33,1.49s-18.39.9-27.65,1.3-18.54.78-27.83,1.12-18.59.64-27.87.9c-18.54.51-37,.85-54.78.91-8.84,0-17.53,0-25.81-.15s-16.12-.37-23.42-.68h-.08a38.33,38.33,0,0,0-7,.34c-1.6.28-1.08.59,1.16.68h.18c8.16.3,16.8.5,25.71.6s18.18.09,27.48,0c18.66-.16,37.65-.59,56.49-1.21q14.15-.45,28.19-1t27.91-1.25q13.86-.68,27.54-1.43C399.21,441.41,408.27,440.89,417.17,440.31Z" transform="translate(-155.58 -320.99)"/><path class="cls-11" d="M415.4,446.24" transform="translate(-155.58 -320.99)"/><path class="cls-12" d="M419.85,441.35a3,3,0,0,0-.46-.34l-.13-.07-.12-.07a1.59,1.59,0,0,0-.27-.12l-.28-.09-.28-.09-.27-.1-.27-.11-.28-.1-.14-.05-.14,0c-.1,0-.19-.05-.29-.06l-.3,0a2.83,2.83,0,0,0-1.19.14v0a7.39,7.39,0,0,1,1.16.06l.28,0,.29.05.14,0,.14,0,.29.05.28.07.27.1a3.56,3.56,0,0,1,.51.27c.16.09.34.16.51.24a5.09,5.09,0,0,0,.54.22Z" transform="translate(-155.58 -320.99)"/><path class="cls-13" d="M423.87,440.9a2.59,2.59,0,0,0-.41-.4l-.11-.09-.12-.08-.24-.15-.27-.13c-.09,0-.17-.08-.26-.12l-.26-.13-.25-.14-.25-.14-.14-.06-.13-.06-.28-.1-.29-.08a3,3,0,0,0-1.2,0v0a8.21,8.21,0,0,1,1.14.2l.27.07.28.08.14,0,.13,0,.28.09.27.1.25.13c.16.1.31.22.46.33s.31.21.47.31l.5.29Z" transform="translate(-155.58 -320.99)"/><path class="cls-14" d="M425.8,440a3.09,3.09,0,0,0-.45-.36l-.12-.07-.13-.07-.26-.13-.28-.09-.28-.1-.27-.1-.26-.12-.28-.11-.13-.05-.15,0-.29-.07-.29-.05a2.86,2.86,0,0,0-1.2.12v0a8.77,8.77,0,0,1,1.15.08l.28,0,.29.05.14,0,.14,0a2.8,2.8,0,0,1,.28.06l.28.07a2.18,2.18,0,0,1,.27.11,3.05,3.05,0,0,1,.5.28c.16.09.34.17.51.25s.34.17.53.24Z" transform="translate(-155.58 -320.99)"/><path class="cls-15" d="M427.2,439.34a3,3,0,0,0-.45-.35l-.12-.08-.13-.07a1.23,1.23,0,0,0-.26-.12l-.28-.1-.28-.09-.27-.11a1.23,1.23,0,0,1-.26-.12l-.28-.11-.13-.05-.15,0-.29-.08-.29,0a2.87,2.87,0,0,0-1.2.13v0a7.38,7.38,0,0,1,1.16.07l.28.05.29.05.14,0,.14,0a2.8,2.8,0,0,0,.28.06l.28.08.27.1c.18.08.34.19.5.28s.33.18.51.26.34.16.53.23Z" transform="translate(-155.58 -320.99)"/><path class="cls-16" d="M420.92,441.88a3,3,0,0,0-.38-.42l-.1-.1-.11-.09-.24-.16a2,2,0,0,0-.25-.14l-.26-.14-.24-.15-.24-.16-.24-.16-.13-.07-.13-.06c-.09,0-.18-.09-.27-.12l-.28-.1a2.86,2.86,0,0,0-1.2-.07v0a6.78,6.78,0,0,1,1.12.27l.27.08.27.1.13,0,.13.05.27.11.26.12.24.14a5.28,5.28,0,0,1,.44.36,5.3,5.3,0,0,0,.45.34l.47.32Z" transform="translate(-155.58 -320.99)"/><path class="cls-17" d="M424.05,442.63c-.32-.21-.64-.4-1-.6l-1-.58c-.33-.18-.65-.39-1-.57s-.68-.35-1-.51A7.86,7.86,0,0,0,419,440a10.66,10.66,0,0,0-1.15-.25,8.12,8.12,0,0,0-2.36,0v0a14.82,14.82,0,0,1,2.32.18l.57.1.28.06.28.06c.37.1.74.19,1.1.31a6.18,6.18,0,0,1,1,.46,3.72,3.72,0,0,1,.45.33l.46.34c.32.21.65.39,1,.57a10,10,0,0,0,1.05.48Z" transform="translate(-155.58 -320.99)"/><path class="cls-18" d="M424,441.76l-1-.52-1-.49c-.34-.16-.68-.34-1-.49a10.06,10.06,0,0,0-1.08-.42,7,7,0,0,0-1.13-.31,8.91,8.91,0,0,0-1.17-.16,8.15,8.15,0,0,0-2.36.21v0a15.1,15.1,0,0,1,2.33,0l.57,0,.29,0,.29,0c.38.07.76.13,1.13.22a5.76,5.76,0,0,1,1.08.38,3.9,3.9,0,0,1,.49.28c.16.11.33.2.49.3a9.86,9.86,0,0,0,1,.49,10.07,10.07,0,0,0,1.09.39Z" transform="translate(-155.58 -320.99)"/><path class="cls-19" d="M426,441.85l-2.31-.88c-.39-.13-.78-.27-1.16-.44a8.49,8.49,0,0,1-1.07-.58,5.85,5.85,0,0,0-.56-.28,1.72,1.72,0,0,0-.29-.11l-.31-.1a7.59,7.59,0,0,0-1.25-.21,7.45,7.45,0,0,0-2.53.3v0a11.68,11.68,0,0,1,2.5-.09,7,7,0,0,1,1.22.17,6.52,6.52,0,0,1,1.15.4l1.11.54.55.28.56.26a9.63,9.63,0,0,0,1.17.43,10.22,10.22,0,0,0,1.21.31Z" transform="translate(-155.58 -320.99)"/><path class="cls-20" d="M428,441l-1.15-.36-1.14-.36c-.19,0-.38-.12-.56-.18l-.28-.11-.27-.12-.25-.15-.23-.17a2.1,2.1,0,0,0-.53-.29,4.89,4.89,0,0,0-1.18-.31,8.38,8.38,0,0,0-1.22-.11,10.3,10.3,0,0,0-1.24.06,5,5,0,0,0-1.2.29v0a4.17,4.17,0,0,1,.6-.1l.6,0c.41,0,.81,0,1.21,0a9.87,9.87,0,0,1,2.37.3,2,2,0,0,1,.53.24l.24.17.26.16a9.62,9.62,0,0,0,1.07.52A11,11,0,0,0,428,441Z" transform="translate(-155.58 -320.99)"/><path class="cls-21" d="M427.21,441.22l-1.14-.36-1.14-.36-.57-.18-.27-.11-.27-.12-.25-.15-.24-.17a2.1,2.1,0,0,0-.53-.29,4.66,4.66,0,0,0-1.18-.31,9.88,9.88,0,0,0-1.22-.11,10.14,10.14,0,0,0-1.23.07,4.46,4.46,0,0,0-1.2.28v0a3.76,3.76,0,0,1,.6-.1l.6,0c.4,0,.81,0,1.21,0a9.87,9.87,0,0,1,2.37.3,1.9,1.9,0,0,1,.52.24l.25.17.25.16a10.72,10.72,0,0,0,1.08.52A10.93,10.93,0,0,0,426,441a12.07,12.07,0,0,0,1.2.22Z" transform="translate(-155.58 -320.99)"/><path class="cls-22" d="M429.59,440.35c-.67-.13-1.34-.26-2-.45l-.48-.16-.23-.1a2.39,2.39,0,0,1-.22-.12l-.2-.14c-.07-.05-.13-.11-.2-.15l-.22-.13-.23-.12a6.29,6.29,0,0,0-1-.34,8.35,8.35,0,0,0-1-.18,7.18,7.18,0,0,0-1,0,5.35,5.35,0,0,0-1.05.11v0c.34,0,.68,0,1,0s.68.06,1,.11l.51.07.25,0,.25,0c.33.08.66.15,1,.26l.23.09a1.51,1.51,0,0,1,.22.11,2.78,2.78,0,0,1,.41.29,4.32,4.32,0,0,0,.9.48,5.64,5.64,0,0,0,2,.31Z" transform="translate(-155.58 -320.99)"/><path class="cls-23" d="M432.49,439.49l-1.21-.14-1.21-.14-.6-.07-.3,0-.3-.05a5.63,5.63,0,0,1-1.14-.37l-.51-.29-.14-.07-.13-.06a1.78,1.78,0,0,0-.29-.12,4.41,4.41,0,0,0-1.19-.29,5.22,5.22,0,0,0-1.25,0,6,6,0,0,0-.61.11,4.19,4.19,0,0,0-.59.22h0a5.53,5.53,0,0,1,1.2-.18,6.85,6.85,0,0,1,1.2.05,6.37,6.37,0,0,1,1.15.25l.14.05.14.05.14.06.13.06.27.12a2.36,2.36,0,0,0,.28.12l.29.1.29.08.3.08.29.07c.39.1.79.2,1.19.27s.81.1,1.22.13.81,0,1.22,0Z" transform="translate(-155.58 -320.99)"/><path class="cls-24" d="M437.55,433.81l-1.21.18-1.21.17-.61.09-.3,0-.31,0a5.43,5.43,0,0,1-1.21-.06l-.58-.14-.15,0-.16,0a1.54,1.54,0,0,0-.3,0,4.75,4.75,0,0,0-1.25,0,6.18,6.18,0,0,0-1.21.33,4.11,4.11,0,0,0-.56.27,2.89,2.89,0,0,0-.51.35h0a5,5,0,0,1,1.11-.48,6.87,6.87,0,0,1,2.37-.31h.15l.15,0h.15l.14,0,.3.05c.11,0,.21,0,.31,0l.31,0h.92c.41,0,.82,0,1.23-.05a10,10,0,0,0,1.22-.19,9.6,9.6,0,0,0,1.2-.31Z" transform="translate(-155.58 -320.99)"/><path class="cls-25" d="M432.49,439.85a12.25,12.25,0,0,0-2.44-.83l-.64-.13-.64-.11-.64-.11-.31-.06-.33-.05-.32-.05-.32,0-.65-.06-1.29-.14c-.43,0-.86-.1-1.29-.13a3.92,3.92,0,0,0-1.32.11v0a4.57,4.57,0,0,1,1.28,0l1.29.18c.43.05.86.09,1.3.11l.65,0,.65,0a9.17,9.17,0,0,1,1.28.18c.42.09.83.21,1.24.34l2.48.68Z" transform="translate(-155.58 -320.99)"/><path class="cls-26" d="M436.27,437.79l-1.91-.2a18.51,18.51,0,0,1-1.86-.33l-.22-.07-.11,0-.13,0a2.63,2.63,0,0,0-.49-.06,7.87,7.87,0,0,0-1,0c-.64,0-1.29.1-1.93.16-1.28.11-2.57.3-3.84.35h-.47l-.22,0-.25,0a3.65,3.65,0,0,0-1,.08,5.13,5.13,0,0,0-1.78.76v0A6.92,6.92,0,0,1,422,438a5.9,5.9,0,0,1,.92-.23,3.23,3.23,0,0,1,.93,0l.23,0,.25,0a4,4,0,0,0,.49,0c.65,0,1.3-.1,1.94-.18s1.28-.18,1.91-.28,1.28-.18,1.92-.21a7.65,7.65,0,0,1,1,0,2.33,2.33,0,0,1,.46.08l.1,0,.11,0,.23.08a6.08,6.08,0,0,0,.94.21q.48.08,1,.12a17.7,17.7,0,0,0,1.93.06Z" transform="translate(-155.58 -320.99)"/><path class="cls-27" d="M432.3,439q-.63-.12-1.23-.27a9.27,9.27,0,0,1-1.2-.36l-.14-.06-.07,0-.07,0a2.14,2.14,0,0,0-.32-.08c-.21,0-.43,0-.64-.05l-1.28,0c-.85,0-1.71,0-2.54-.06l-.31,0-.15,0-.16,0a2.35,2.35,0,0,0-.65,0,3.46,3.46,0,0,0-1.23.38h0a4.31,4.31,0,0,1,.61-.19,3.44,3.44,0,0,1,.62-.09,2.56,2.56,0,0,1,.62.05l.14,0,.16,0,.33.05a10.94,10.94,0,0,0,1.28,0c.43,0,.85,0,1.28,0s.85,0,1.28,0a3.19,3.19,0,0,1,.62.08,1.4,1.4,0,0,1,.29.09l.07,0,.07,0,.14.07a4.22,4.22,0,0,0,.6.2,6.23,6.23,0,0,0,.62.15,10.33,10.33,0,0,0,1.26.19Z" transform="translate(-155.58 -320.99)"/><path class="cls-28" d="M439.09,435.67c-1.16.19-2.31.35-3.46.43-.29,0-.57,0-.86,0h-.44l-.43,0-.42-.07-.41-.11-.41-.13c-.14,0-.28-.06-.43-.09a8.44,8.44,0,0,0-1.74-.11,14.57,14.57,0,0,0-1.75.14,17,17,0,0,0-1.73.33,10.16,10.16,0,0,0-1.67.54v0a16.76,16.76,0,0,1,1.7-.4c.57-.1,1.14-.2,1.71-.27a15.37,15.37,0,0,1,3.45-.14l.42.07.42.1a3.11,3.11,0,0,0,.41.11l.43.08a10.22,10.22,0,0,0,1.75.09,12.86,12.86,0,0,0,1.74-.19,12.45,12.45,0,0,0,1.71-.39Z" transform="translate(-155.58 -320.99)"/><path class="cls-29" d="M439.69,435a15.93,15.93,0,0,1-3.25.68,7.09,7.09,0,0,1-1.66,0,9.72,9.72,0,0,1-1.57-.46c-.14,0-.27-.08-.4-.1l-.42-.08L432,435h-.21l-.21,0a11.93,11.93,0,0,0-1.69.05,12.58,12.58,0,0,0-3.26.82v0a19.24,19.24,0,0,1,3.27-.62,13,13,0,0,1,1.65-.07c.28,0,.55,0,.82,0l.41.06c.14,0,.27.05.4.07l.2.05.2.05.39.12.2.06.2.05.41.09a8.47,8.47,0,0,0,1.67.1,9.25,9.25,0,0,0,1.67-.28,8.82,8.82,0,0,0,1.59-.56Z" transform="translate(-155.58 -320.99)"/><path class="cls-30" d="M441.06,433.79a2.93,2.93,0,0,1-.73.52,4.33,4.33,0,0,1-.85.31,5.8,5.8,0,0,1-1.81.16c-.3,0-.61,0-.91-.08s-.6-.1-.9-.15l-.46-.08-.22,0-.23,0-.45-.06-.46-.06a12.74,12.74,0,0,0-1.86-.09,13,13,0,0,0-1.86.18,12.3,12.3,0,0,0-1.8.5,11.25,11.25,0,0,0-1.68.8v0a16.42,16.42,0,0,1,1.72-.66,16.11,16.11,0,0,1,1.79-.44,18.29,18.29,0,0,1,1.83-.21c.61,0,1.22,0,1.83,0a13.91,13.91,0,0,1,1.82.22,13.75,13.75,0,0,0,1.81.34l.47,0,.47,0c.16,0,.31,0,.47-.06l.23-.05.23-.06.23-.07.22-.09.1-.05.11-.05a1.32,1.32,0,0,0,.2-.12,2.16,2.16,0,0,0,.38-.27,2,2,0,0,0,.32-.33Z" transform="translate(-155.58 -320.99)"/><path class="cls-31" d="M442.87,432a6.67,6.67,0,0,1-3.48,1.54,6.25,6.25,0,0,1-1.93,0c-.64-.11-1.28-.21-1.93-.29a12.75,12.75,0,0,0-2-.09l-.49,0-.49,0c-.33,0-.66.09-1,.16l-.25.05-.24.06c-.16,0-.32.08-.48.14l-.47.16-.45.19a8.33,8.33,0,0,0-1.69,1v0a10.82,10.82,0,0,1,1.74-.86l.46-.17.46-.14a1.05,1.05,0,0,1,.24-.06l.23-.06.24-.06.24-.05a15.19,15.19,0,0,1,3.87-.22,13.61,13.61,0,0,1,1.92.24l.49.08a3.93,3.93,0,0,0,.48.06l.25,0h.25a4,4,0,0,0,.49,0,5.45,5.45,0,0,0,1.91-.54,6.59,6.59,0,0,0,.85-.51,4.47,4.47,0,0,0,.73-.64Z" transform="translate(-155.58 -320.99)"/><path class="cls-32" d="M444.26,430.52a12.34,12.34,0,0,1-2.18,1.39,11,11,0,0,1-2.43.87,7.91,7.91,0,0,1-1.28.19h-.65l-.65,0a16.25,16.25,0,0,0-2.61,0,16.51,16.51,0,0,0-2.6.4,22.08,22.08,0,0,0-2.51.78,20.71,20.71,0,0,0-2.37,1.15,18.47,18.47,0,0,0-2.15,1.46l0,0a23.78,23.78,0,0,1,2.22-1.34c.19-.11.38-.2.58-.3l.29-.14.3-.13.29-.14.3-.13.6-.24a23.88,23.88,0,0,1,2.48-.8,20.25,20.25,0,0,1,2.56-.48,12.56,12.56,0,0,1,2.6-.05l.65.06.32,0h.33a8.43,8.43,0,0,0,1.32-.13,9,9,0,0,0,2.47-.9,10.06,10.06,0,0,0,2.12-1.51Z" transform="translate(-155.58 -320.99)"/><path class="cls-33" d="M444.69,429.38a11.69,11.69,0,0,1-3.3,2.31,7.59,7.59,0,0,1-1.93.66,6.77,6.77,0,0,1-1,.09h-.51l-.51-.05-.51-.05-.51,0-.26,0h-.26l-.51,0a13.09,13.09,0,0,0-2.07.14,7.82,7.82,0,0,0-2,.55,5.13,5.13,0,0,0-1.71,1.14h0a5.85,5.85,0,0,1,1.75-1,8.86,8.86,0,0,1,2-.48,15.29,15.29,0,0,1,2-.16c.68,0,1.37,0,2.05.05l.51,0h.52a8.8,8.8,0,0,0,1-.1,9.29,9.29,0,0,0,1-.22,8.74,8.74,0,0,0,1-.34,8.59,8.59,0,0,0,1.78-1.05,8.43,8.43,0,0,0,1.46-1.4Z" transform="translate(-155.58 -320.99)"/><path class="cls-34" d="M445.42,427.48a12.25,12.25,0,0,1-2.66,2.67,6,6,0,0,1-1.7.89,8.26,8.26,0,0,1-1.91.3c-.65,0-1.29,0-1.94,0s-1.3,0-1.95.05a12.94,12.94,0,0,0-1.95.22,5.21,5.21,0,0,0-1.83.69v0h0a5.93,5.93,0,0,1,1.84-.55,17.72,17.72,0,0,1,1.93-.16l1.94-.07c.65,0,1.3-.06,2-.13.32,0,.64-.08,1-.13s.64-.12.95-.21a6.85,6.85,0,0,0,1.78-.82,7.75,7.75,0,0,0,1.46-1.27,7.9,7.9,0,0,0,1.12-1.53s0,0,0,0Z" transform="translate(-155.58 -320.99)"/><path class="cls-35" d="M419.64,434.79c-.23.21-.45.43-.67.65s-.44.44-.64.67-.4.47-.62.69a6.87,6.87,0,0,1-.69.63l-.73.58-.75.57a8.57,8.57,0,0,1-1.58,1h0a3.78,3.78,0,0,0,.9-.34,6.79,6.79,0,0,0,.81-.5c.26-.18.5-.39.74-.59s.46-.43.68-.65.43-.45.66-.66.47-.41.7-.63.43-.45.64-.68.39-.48.56-.74v0A0,0,0,0,0,419.64,434.79Z" transform="translate(-155.58 -320.99)"/><path class="cls-36" d="M425.36,433.79c-.21.24-.39.48-.58.72s-.38.49-.55.75-.33.51-.52.76-.39.47-.6.7l-.65.66-.66.65a9.09,9.09,0,0,1-1.44,1.17h0a0,0,0,0,0,0,0,4.36,4.36,0,0,0,.86-.44,7.18,7.18,0,0,0,.74-.6,8.2,8.2,0,0,0,.65-.67c.21-.23.41-.48.59-.72s.37-.5.57-.73l.61-.71a7.91,7.91,0,0,0,.54-.75,6.37,6.37,0,0,0,.46-.8h0Z" transform="translate(-155.58 -320.99)"/><path class="cls-37" d="M421.66,435.74c-.24.21-.46.43-.67.65s-.44.44-.65.68-.39.47-.61.69-.45.43-.69.63l-.74.58-.74.57a9.13,9.13,0,0,1-1.58,1s0,0,0,0h0a4.27,4.27,0,0,0,.9-.34,8.39,8.39,0,0,0,.81-.5c.26-.18.5-.39.74-.59s.46-.43.68-.65.43-.45.66-.66.47-.42.7-.63.43-.45.63-.68a8.09,8.09,0,0,0,.57-.74s0,0,0,0Z" transform="translate(-155.58 -320.99)"/><path class="cls-38" d="M423.54,435c-.24.21-.46.43-.68.65s-.43.44-.64.67-.39.47-.61.7a6.89,6.89,0,0,1-.7.62l-.73.59-.74.56a8.57,8.57,0,0,1-1.58,1h0a3.34,3.34,0,0,0,.91-.34,5.7,5.7,0,0,0,.81-.5A10.52,10.52,0,0,0,421,437.7c.22-.22.43-.44.66-.66s.47-.41.7-.63a8.18,8.18,0,0,0,.63-.68,6.54,6.54,0,0,0,.56-.74s0,0,0,0Z" transform="translate(-155.58 -320.99)"/><path class="cls-39" d="M420.71,435.46c-.24.21-.46.43-.68.65s-.43.44-.64.67-.4.47-.61.69a7,7,0,0,1-.7.63l-.73.58c-.24.2-.49.39-.74.57a8.91,8.91,0,0,1-1.58,1h0a3.48,3.48,0,0,0,.9-.34,6.19,6.19,0,0,0,.82-.5c.26-.18.5-.39.74-.59s.46-.42.68-.65.43-.45.66-.66.47-.41.7-.63a8.18,8.18,0,0,0,.63-.68,8,8,0,0,0,.56-.74s0,0,0,0Z" transform="translate(-155.58 -320.99)"/><path class="cls-40" d="M421.19,433.77c-.44.6-.9,1.18-1.36,1.76l-.34.44-.36.43a6.67,6.67,0,0,1-.82.77c-.28.25-.59.47-.88.71l-.45.33-.23.17-.23.16c-.61.44-1.26.82-1.92,1.22h0l.53-.23.27-.11a2,2,0,0,0,.25-.14l.51-.27.48-.32.24-.16.23-.17.45-.35c.28-.25.57-.5.83-.78l.39-.4.39-.4.4-.4.39-.41a4.94,4.94,0,0,0,.36-.44l.33-.45a6.2,6.2,0,0,0,.55-1h0Z" transform="translate(-155.58 -320.99)"/><path class="cls-41" d="M423,433.29a12.53,12.53,0,0,0-.83,1c-.27.33-.54.65-.8,1s-.51.67-.79,1a9.56,9.56,0,0,1-.9.9c-.32.28-.64.56-1,.83s-.67.53-1,.77a7.94,7.94,0,0,1-2.28,1.17s0,0,0,0h0a5.06,5.06,0,0,0,1.26-.37,8,8,0,0,0,1.15-.64,12.64,12.64,0,0,0,1.94-1.7l.87-.94.44-.46c.15-.16.3-.31.44-.47a17.15,17.15,0,0,0,1.49-2h0s0,0,0,0Z" transform="translate(-155.58 -320.99)"/><path class="cls-42" d="M424.18,432.76c-.46.69-.92,1.36-1.39,2-.22.34-.45.68-.7,1a10.4,10.4,0,0,1-.84.92c-.3.28-.6.57-.91.84s-.64.54-1,.78-.68.49-1,.71-.74.4-1.12.58h0s0,0,0,0a6.37,6.37,0,0,0,1.19-.46,9.93,9.93,0,0,0,1.09-.67,9.55,9.55,0,0,0,1-.82,10.53,10.53,0,0,0,.86-.91c.28-.32.54-.64.8-1s.55-.62.8-.95a8.81,8.81,0,0,0,.69-1,8.67,8.67,0,0,0,.57-1.09h0Z" transform="translate(-155.58 -320.99)"/><path class="cls-43" d="M425.64,431.41c-.39.81-.79,1.61-1.2,2.41-.2.4-.4.8-.63,1.19a12.39,12.39,0,0,1-.79,1.11,14.67,14.67,0,0,1-1.9,2,8,8,0,0,1-2.34,1.44h0a0,0,0,0,0,0,0,6.18,6.18,0,0,0,2.5-1.3c.18-.14.35-.31.52-.47s.32-.33.47-.5a9.6,9.6,0,0,0,.84-1.09l.76-1.14c.25-.38.5-.76.73-1.15a11.42,11.42,0,0,0,.61-1.21,11.1,11.1,0,0,0,.45-1.26s0,0,0,0Z" transform="translate(-155.58 -320.99)"/><path class="cls-44" d="M426.81,431.18a16.47,16.47,0,0,1-.82,2.58,1,1,0,0,1-.07.15l-.07.16a2.75,2.75,0,0,1-.14.3c-.06.1-.11.21-.17.3l-.19.29-.22.27-.12.12-.13.12c-.17.16-.36.3-.54.46-.36.3-.7.62-1,.95l-1,1a6.75,6.75,0,0,1-2.35,1.5s0,0,0,0h0a4.09,4.09,0,0,0,1.35-.51,7.52,7.52,0,0,0,1.16-.85c.35-.31.68-.65,1-1l1-1a13.38,13.38,0,0,0,1-1,7.34,7.34,0,0,0,.75-1.18,7.3,7.3,0,0,0,.67-2.63h0Z" transform="translate(-155.58 -320.99)"/><path class="cls-45" d="M427.54,432c-.3.65-.61,1.28-.94,1.92a8.46,8.46,0,0,1-.5.94,6.09,6.09,0,0,1-.64.87,14.09,14.09,0,0,1-1.55,1.54,12.82,12.82,0,0,1-1.79,1.27s0,0,0,0h0a6.85,6.85,0,0,0,1.94-1.13l.21-.18.2-.19.39-.4a6.94,6.94,0,0,0,.68-.86l.62-.9c.2-.3.41-.6.6-.91a7.22,7.22,0,0,0,.47-1,5.25,5.25,0,0,0,.32-1h0Z" transform="translate(-155.58 -320.99)"/><path class="cls-46" d="M429.16,425.48c-.06.48-.13.95-.19,1.42s-.13.94-.18,1.41-.1.95-.18,1.42a13.36,13.36,0,0,1-.33,1.39,21.66,21.66,0,0,1-.93,2.71,10.38,10.38,0,0,1-.65,1.29,5.18,5.18,0,0,1-.91,1.14s0,0,0,0h0a4.11,4.11,0,0,0,1.05-1.07,8.1,8.1,0,0,0,.71-1.29c.1-.22.19-.45.27-.68s.16-.46.23-.69a13.59,13.59,0,0,0,.34-1.4l.28-1.4c.09-.47.2-.94.29-1.41s.13-.95.17-1.42a13.57,13.57,0,0,0,.05-1.43h0Z" transform="translate(-155.58 -320.99)"/><path class="cls-47" d="M430.44,428.1c-.09.32-.18.63-.26.95s-.18.62-.26.94-.15.63-.25.94a7.83,7.83,0,0,1-.34.92,16,16,0,0,1-.88,1.76,7.81,7.81,0,0,1-.55.82,3.68,3.68,0,0,1-.72.7h0a3,3,0,0,0,.81-.64,5.39,5.39,0,0,0,.6-.82l.24-.43c.07-.15.15-.3.21-.45.14-.31.26-.61.37-.92l.31-.94c.11-.31.23-.61.33-.93s.17-.63.24-.94a7.85,7.85,0,0,0,.16-1h0Z" transform="translate(-155.58 -320.99)"/><path class="cls-48" d="M428.8,423.73a46.48,46.48,0,0,1-1.13,7.12c-.15.59-.31,1.17-.5,1.74-.09.29-.2.58-.3.86s-.24.56-.38.84a8.42,8.42,0,0,1-.95,1.57,5.3,5.3,0,0,1-1.36,1.27c-.13.09-.28.16-.41.26l-.1.1,0,0a.11.11,0,0,0,0,.08.13.13,0,0,0,.06.05h0a1.17,1.17,0,0,0,.27,0c.32-.05.63-.12,1-.2l1.86-.45c.63-.15,1.25-.28,1.88-.39a13.59,13.59,0,0,1,1.88-.23,4.09,4.09,0,0,1,.93.05,1.6,1.6,0,0,1,.42.14,3,3,0,0,0,.45.18,7.53,7.53,0,0,0,1.89.3,17,17,0,0,0,3.83-.35v0c-.63.1-1.27.16-1.91.2a15.06,15.06,0,0,1-1.9,0,7,7,0,0,1-1.84-.32l-.42-.18a1.84,1.84,0,0,0-.47-.15,4,4,0,0,0-1-.07,12.28,12.28,0,0,0-1.92.23c-.63.12-1.26.27-1.88.42s-1.25.32-1.86.48c-.31.08-.63.16-.93.22l-.22,0s0,0,0,0,0,0,0,0a.23.23,0,0,1,.07-.07,3.67,3.67,0,0,1,.38-.27,5.51,5.51,0,0,0,1.36-1.32,10,10,0,0,0,1-1.58,15.66,15.66,0,0,0,.73-1.69c.21-.58.4-1.16.56-1.74a29.41,29.41,0,0,0,.69-3.56,31.16,31.16,0,0,0,.28-3.6Z" transform="translate(-155.58 -320.99)"/><path class="cls-49" d="M430.81,420.47a7.54,7.54,0,0,0-1,2.2,9.38,9.38,0,0,0-.33,2.35v.59l.05.59c0,.19.06.39.08.58l.08.58a6.8,6.8,0,0,1-.16,2.33,12.39,12.39,0,0,1-2,4.3,11,11,0,0,1-.73,1,11.78,11.78,0,0,1-.84.89,8.17,8.17,0,0,1-2,1.44v0a7.26,7.26,0,0,0,2.1-1.35,11.08,11.08,0,0,0,1.65-1.84A11.42,11.42,0,0,0,429,432a9.75,9.75,0,0,0,.85-3.46,7.72,7.72,0,0,0,0-1.18c0-.39-.08-.78-.11-1.17V425a12.11,12.11,0,0,1,.32-2.32,8.63,8.63,0,0,1,.85-2.21Z" transform="translate(-155.58 -320.99)"/><path class="cls-50" d="M433,418.3a6.46,6.46,0,0,0-2,2.11,6.75,6.75,0,0,0-.9,2.69,8.3,8.3,0,0,0,0,1.41c0,.23,0,.46.08.69s0,.23.05.34l.07.34c0,.23.11.46.16.68l.19.67a5,5,0,0,1,.14.67c0,.12,0,.23.05.34l0,.35v.34l0,.35,0,.34,0,.17,0,.17c0,.11-.05.23-.07.34l-.11.33c0,.11-.07.22-.11.33s-.08.22-.13.32a8.87,8.87,0,0,1-.69,1.24,10.57,10.57,0,0,1-.88,1.12,14.78,14.78,0,0,1-2.14,2,18.36,18.36,0,0,1-2.47,1.61v0a16.34,16.34,0,0,0,2.56-1.5c.4-.29.79-.59,1.17-.92a12.76,12.76,0,0,0,1.05-1,9.9,9.9,0,0,0,.9-1.15,7.85,7.85,0,0,0,.68-1.28c.05-.11.09-.22.13-.33s.08-.23.11-.34l.1-.35.06-.35,0-.17v-.18l0-.35v-.53l0-.17,0-.35-.06-.35c0-.23-.11-.45-.17-.67s-.13-.44-.2-.67-.05-.22-.08-.33-.05-.23-.07-.34a8.28,8.28,0,0,1-.07-2.75,7.54,7.54,0,0,1,.87-2.64,7.71,7.71,0,0,1,.82-1.17,6.65,6.65,0,0,1,1.06-1Z" transform="translate(-155.58 -320.99)"/><path class="cls-51" d="M445.57,422.87a11.56,11.56,0,0,0-1.34,1.06,10.63,10.63,0,0,0-1.2,1.22,7.92,7.92,0,0,0-.93,1.4,5.45,5.45,0,0,1-1.06,1.29,11.61,11.61,0,0,1-2.79,1.91q-.39.18-.78.33a5.91,5.91,0,0,1-.82.24,4,4,0,0,1-1.69,0,0,0,0,0,0,0,0h0a3.56,3.56,0,0,0,1.72.12,6.21,6.21,0,0,0,.85-.21,6.38,6.38,0,0,0,.82-.33,8.63,8.63,0,0,0,1.49-.89,9.31,9.31,0,0,0,1.29-1.14,8.42,8.42,0,0,0,.55-.64,5.33,5.33,0,0,0,.48-.69l.22-.35c.08-.11.16-.23.25-.34l.26-.32.28-.31c.75-.83,1.57-1.61,2.41-2.38h0Z" transform="translate(-155.58 -320.99)"/><path class="cls-52" d="M444.89,419.08a14.86,14.86,0,0,0-1,1.36,11.54,11.54,0,0,0-.81,1.46,8,8,0,0,0-.51,1.57,4.75,4.75,0,0,1-.67,1.49,10.9,10.9,0,0,1-2.17,2.53,8.27,8.27,0,0,1-.66.51,6.65,6.65,0,0,1-.73.43,3.85,3.85,0,0,1-1.63.44h0a3.48,3.48,0,0,0,1.71-.32,4.84,4.84,0,0,0,.78-.41,7,7,0,0,0,.7-.51,9.22,9.22,0,0,0,1.19-1.23A8.18,8.18,0,0,0,442,425q.19-.36.36-.75a5.13,5.13,0,0,0,.27-.78c0-.13.07-.26.11-.39l.15-.38c.05-.13.11-.25.16-.38l.19-.37c.49-1,1.07-1.92,1.66-2.87h0Z" transform="translate(-155.58 -320.99)"/><path class="cls-53" d="M447.12,425.9a12.45,12.45,0,0,0-1.57.73,11.62,11.62,0,0,0-1.47.91,8.15,8.15,0,0,0-1.27,1.15,5.47,5.47,0,0,1-1.36,1,12.2,12.2,0,0,1-3.19,1.21,8.17,8.17,0,0,1-.84.14,4.73,4.73,0,0,1-.84,0,3.78,3.78,0,0,1-1.63-.37h0s0,0,0,0a3.45,3.45,0,0,0,1.62.52,5.17,5.17,0,0,0,.88,0,6.5,6.5,0,0,0,.87-.12,9.44,9.44,0,0,0,1.66-.53,10.24,10.24,0,0,0,1.54-.81c.25-.15.48-.32.71-.49a6.86,6.86,0,0,0,.64-.57c.1-.1.2-.2.31-.29l.32-.27.34-.26.36-.24c.94-.63,1.93-1.2,2.94-1.75v0Z" transform="translate(-155.58 -320.99)"/><path class="cls-54" d="M433.49,425.79l1.37-1.85c.1-.16.22-.31.33-.47s.23-.31.35-.46l.18-.22.2-.21.2-.21.21-.2c.56-.54,1.15-1,1.75-1.53s1.24-.93,1.9-1.37v0l-.54.26-.26.14-.26.15c-.17.11-.34.2-.5.32l-.48.35-.23.19-.22.19-.22.19-.21.21-.42.41-.39.43-.38.45-.19.21a2,2,0,0,1-.19.22l-.77.87a10.17,10.17,0,0,0-.68.94,9.72,9.72,0,0,0-.55,1Z" transform="translate(-155.58 -320.99)"/><path class="cls-55" d="M440,415.68c-.85,1-1.74,2-2.68,2.9a18.53,18.53,0,0,1-1.45,1.35l-.39.31-.4.3-.42.27-.42.28a4.81,4.81,0,0,0-1.44,1.4,4.68,4.68,0,0,0-.71,1.82,6.12,6.12,0,0,0,0,1.91,7.67,7.67,0,0,0,.19.93,4.71,4.71,0,0,0,.34.88h0a6.63,6.63,0,0,1-.25-.9c-.06-.31-.1-.62-.13-.92a6.82,6.82,0,0,1,.08-1.86,5.08,5.08,0,0,1,.66-1.76,4.92,4.92,0,0,1,1.33-1.4c.54-.39,1.09-.78,1.61-1.2l.39-.31.39-.32c.25-.21.51-.43.75-.66a16.79,16.79,0,0,0,1.37-1.43,15.16,15.16,0,0,0,1.2-1.57Z" transform="translate(-155.58 -320.99)"/><path class="cls-56" d="M437.55,417.19a7,7,0,0,0-1.77.68l-.42.23-.4.25c-.12.09-.26.18-.38.28l-.18.15-.18.15a8.06,8.06,0,0,0-1.22,1.4,8.84,8.84,0,0,0-.92,1.57,7.68,7.68,0,0,0-.53,1.73c0,.3-.1.59-.11.89s0,.3,0,.45v.44a11.36,11.36,0,0,0,.67,3.47h0a16.35,16.35,0,0,1-.46-3.47V425c0-.14,0-.29,0-.43a8.46,8.46,0,0,1,.08-.88,10.48,10.48,0,0,1,.44-1.71,6.75,6.75,0,0,1,.86-1.58,8.35,8.35,0,0,1,1.29-1.3,11.07,11.07,0,0,1,3.22-1.85Z" transform="translate(-155.58 -320.99)"/><path class="cls-57" d="M434.08,417.84a7.55,7.55,0,0,0-1.46,1.18c-.11.11-.21.23-.31.34l-.29.36a4.44,4.44,0,0,0-.27.38l-.13.2-.11.19a7.79,7.79,0,0,0-.68,1.68,8.94,8.94,0,0,0-.33,1.76,7.49,7.49,0,0,0,.1,1.77,6.48,6.48,0,0,0,.21.87c0,.14.08.28.13.42l.16.42a11.52,11.52,0,0,0,1.85,3l0,0a16.72,16.72,0,0,1-1.65-3.09l-.16-.41c-.05-.14-.08-.28-.13-.42s-.15-.55-.23-.84a11,11,0,0,1-.18-1.73,6.14,6.14,0,0,1,.28-1.74,6.68,6.68,0,0,1,.77-1.62,10.55,10.55,0,0,1,2.42-2.71Z" transform="translate(-155.58 -320.99)"/><path class="cls-58" d="M440.53,416.94a7.32,7.32,0,0,0-1.84.47c-.15,0-.3.12-.44.18l-.43.21-.42.23-.2.13-.19.13a8.8,8.8,0,0,0-1.4,1.25A9.44,9.44,0,0,0,434.5,421a7.42,7.42,0,0,0-.75,1.65,8.75,8.75,0,0,0-.23.88l-.09.44-.05.44a11,11,0,0,0,.21,3.53h0a16.47,16.47,0,0,1,0-3.51l.06-.44c0-.14.05-.29.08-.43,0-.29.13-.57.2-.86a10.1,10.1,0,0,1,.65-1.65,6.72,6.72,0,0,1,1.07-1.48,7.66,7.66,0,0,1,1.44-1.15,11,11,0,0,1,3.42-1.46Z" transform="translate(-155.58 -320.99)"/><path class="cls-59" d="M445.31,424a6,6,0,0,1-.39,1.75c-.05.14-.11.28-.17.42s-.13.28-.2.41-.14.27-.22.4l-.12.2-.14.19a9,9,0,0,1-1.25,1.37,10.45,10.45,0,0,1-1.5,1.12,9.06,9.06,0,0,1-1.73.8,8.89,8.89,0,0,1-.92.26,3.78,3.78,0,0,1-.46.1l-.47.08a13.3,13.3,0,0,1-3.78,0v0a19.57,19.57,0,0,0,3.75-.2l.46-.07.46-.1c.3-.06.6-.15.9-.23a13.67,13.67,0,0,0,1.73-.71,7,7,0,0,0,1.51-1.08,7.71,7.71,0,0,0,1.15-1.41,9.74,9.74,0,0,0,1.37-3.28Z" transform="translate(-155.58 -320.99)"/><path class="cls-60" d="M431.68,425.64a15.83,15.83,0,0,1,.22,2.37,6.88,6.88,0,0,1,0,1.2,5.25,5.25,0,0,1-.28,1.17,9.27,9.27,0,0,1-.49,1.12c0,.09-.1.17-.15.26l-.07.14-.08.12c-.06.09-.11.18-.17.26l-.18.25a10,10,0,0,1-1.7,1.81v0a6.87,6.87,0,0,0,1.89-1.71,6.49,6.49,0,0,0,1.06-2.24c.1-.4.17-.8.23-1.2a9.84,9.84,0,0,0,.15-1.2,7,7,0,0,0-.08-1.21,5.94,5.94,0,0,0-.31-1.17Z" transform="translate(-155.58 -320.99)"/><path class="cls-61" d="M434.7,418.21a7.54,7.54,0,0,0-1.51,1.11l-.34.33c-.1.12-.21.23-.3.35s-.2.24-.29.37l-.14.19-.12.19a8,8,0,0,0-.77,1.65,9.56,9.56,0,0,0-.41,1.74,8.15,8.15,0,0,0,0,1.78c.06.29.09.59.17.88a3.89,3.89,0,0,0,.11.43l.13.42a10.41,10.41,0,0,0,.9,1.91,2.77,2.77,0,0,0,.77,1.17l0,0h0a2.17,2.17,0,0,0,.61.3h0a3.53,3.53,0,0,0,.84.31,7,7,0,0,0,.9.15,11.17,11.17,0,0,0,1.83,0c.3,0,.61-.05.91-.09s.61-.1.9-.17.6-.13.9-.22a8.89,8.89,0,0,0,.86-.32,5.19,5.19,0,0,0,.81-.42,2,2,0,0,0,.66-.62,5.64,5.64,0,0,1,1.06-1.38,31.91,31.91,0,0,1,2.67-2.38h0A14.11,14.11,0,0,0,444.4,427a11.7,11.7,0,0,0-1.31,1.23,7.8,7.8,0,0,0-.56.7l-.23.37c-.07.13-.13.27-.2.39a1.73,1.73,0,0,1-.64.59,4.39,4.39,0,0,1-.82.38,13.23,13.23,0,0,1-2.79.61l.41-.1a9,9,0,0,0,.88-.28,5.66,5.66,0,0,0,1.58-.91,2.9,2.9,0,0,0,.59-.67l.21-.39a3.75,3.75,0,0,1,.24-.36,5.85,5.85,0,0,1,.55-.68l.3-.32.31-.32c.83-.84,1.7-1.64,2.57-2.45,0,0,0,0,0,0h0a16.78,16.78,0,0,0-1.41,1.11,15,15,0,0,0-1.28,1.24,11.88,11.88,0,0,0-1.09,1.39c-.17.24-.31.51-.46.75a2.56,2.56,0,0,1-.6.63,6,6,0,0,1-1.58.8,10.2,10.2,0,0,1-1.73.44,8.65,8.65,0,0,1-.89.1,4.67,4.67,0,0,0,.82-.2,7.18,7.18,0,0,0,.81-.32,8.94,8.94,0,0,0,1.49-.9,9.32,9.32,0,0,0,1.29-1.13c.2-.21.38-.42.56-.64a5.77,5.77,0,0,0,.48-.7l.22-.35.24-.33.27-.33.28-.31c.75-.83,1.57-1.61,2.4-2.37v0h0a14,14,0,0,0-1.34,1.07,12.35,12.35,0,0,0-1.19,1.21,8.24,8.24,0,0,0-.94,1.41,5,5,0,0,1-1.06,1.28,11.34,11.34,0,0,1-1.27,1,3.26,3.26,0,0,0,.31-.33,5.85,5.85,0,0,0,1.25-2.35l.11-.19.24-.39a6.4,6.4,0,0,1,.42-.49c.21-.23.43-.46.66-.68.9-.89,1.86-1.74,2.84-2.57,0,0,0,0,0,0s0,0,0,0a18.19,18.19,0,0,0-3,2.47c-.19.2-.37.41-.54.62l.64-1,.33-.52.36-.5c.12-.16.26-.32.39-.48l.39-.47c.26-.32.51-.65.76-1l.72-1a0,0,0,0,0,0,0h0c-.3.3-.57.6-.84.92q-.21.24-.39.48c-.13.16-.26.32-.38.49-.23.34-.45.68-.69,1s-.48.66-.73,1-.5.65-.73,1c-.11.17-.23.33-.34.51l-.11.17a4.27,4.27,0,0,0,0-1.13l.11-.22.15-.3c.11-.2.2-.41.32-.6s.23-.39.35-.58a5.66,5.66,0,0,1,.4-.56c.13-.19.28-.36.42-.54a13.62,13.62,0,0,1,1.82-2.05h0v0h0a3.8,3.8,0,0,0-.57.42c-.18.15-.34.31-.51.48s-.31.34-.46.52-.29.36-.41.55c-.27.38-.49.78-.73,1.16l-.36.58-.36.59-.18.29v0l0-.12c.2-.61.44-1.2.7-1.8.08-.18.17-.36.26-.54s.2-.34.31-.51a5.62,5.62,0,0,1,.35-.5c.12-.16.26-.31.38-.47l.78-.94c.27-.3.54-.6.84-.89h0v0h0a8.13,8.13,0,0,0-.95.81,8.74,8.74,0,0,0-.79.94c-.24.33-.44.69-.65,1l-.32.52-.3.53c-.05.09-.11.17-.15.26l-.14.27c-.07.15-.14.29-.2.43a.5.5,0,0,0,0-.12l.06-.27.07-.27.15-.53.17-.53a3.33,3.33,0,0,1,.21-.52l.12-.25c0-.09.1-.17.14-.25a4.87,4.87,0,0,1,.32-.47l.18-.22.08-.11.1-.11a8.21,8.21,0,0,1,1.65-1.57h0s0,0,0,0h0a4.1,4.1,0,0,0-1,.64,2.09,2.09,0,0,0-.22.2l-.21.21a3.91,3.91,0,0,0-.37.44,11.07,11.07,0,0,0-.59,1l-.14.25a2,2,0,0,1-.13.25c-.08.17-.18.34-.25.51s-.16.35-.23.52-.12.36-.18.54l-.09.27-.06.27c0,.14-.06.28-.09.43a5.12,5.12,0,0,0-.27-.52c0-.15.06-.3.1-.44l.06-.27c0-.08.05-.17.08-.26s.05-.17.08-.26.05-.17.08-.25c.13-.34.28-.68.44-1a5.55,5.55,0,0,1,.59-1,7.49,7.49,0,0,1,.76-.84,22.23,22.23,0,0,1,1.66-1.54v0a5.83,5.83,0,0,0-1,.66,6.2,6.2,0,0,0-.83.79,9.78,9.78,0,0,0-.68.91c-.22.31-.44.62-.64.94a6.69,6.69,0,0,0-.87,2.06c0,.07,0,.15,0,.23a3.14,3.14,0,0,0-.69-.67,3.62,3.62,0,0,0-.74-.42l.05,0a4.42,4.42,0,0,0,1-.55,6.22,6.22,0,0,0,.82-.72,6.66,6.66,0,0,0,.7-.81l.66-.85c.22-.28.45-.55.66-.84a8.42,8.42,0,0,0,.56-.9,6.81,6.81,0,0,0,.46-.94h0l-.59.88-.57.88c-.18.3-.36.61-.56.9a8.7,8.7,0,0,1-.69.81c-.25.25-.5.51-.76.75a9,9,0,0,1-.82.68,6.2,6.2,0,0,1-1.07.67l-.28-.09a6.63,6.63,0,0,0,.79-.43l.49-.34.46-.38a8,8,0,0,0,.81-.84c.25-.3.49-.6.72-.91s.48-.61.69-.93a7,7,0,0,0,.55-1,6.21,6.21,0,0,0,.38-1.07h0c-.33.69-.69,1.35-1.06,2a9.74,9.74,0,0,1-.6,1,6.25,6.25,0,0,1-.75.87l-.42.4-.44.37a9.07,9.07,0,0,1-.94.69c-.3.2-.61.38-.93.55L438,422a6.1,6.1,0,0,0,.7-.41,9,9,0,0,0,1.76-1.55c.26-.29.5-.59.75-.88s.5-.59.73-.9a6.53,6.53,0,0,0,.59-1,5.71,5.71,0,0,0,.42-1.06h0c-.35.67-.74,1.31-1.14,1.95-.2.32-.4.65-.63.95a7.88,7.88,0,0,1-.79.85q-.42.39-.87.75a2,2,0,0,1-.23.18l-.23.18-.23.17-.24.16c-.29.2-.58.38-.88.56h-.41a2.83,2.83,0,0,0,.28-.2,2,2,0,0,0,.23-.18,2.11,2.11,0,0,0,.23-.19l.22-.19.22-.2.42-.41c.14-.14.26-.28.4-.43l.38-.43.2-.22.19-.21.79-.86a10.16,10.16,0,0,0,.69-.93,8.17,8.17,0,0,0,.57-1h0l-1.39,1.83c-.11.16-.23.31-.34.46s-.23.31-.35.46l-.19.21-.2.21-.21.21-.21.2q-.85.79-1.77,1.5l-.52.4a6.07,6.07,0,0,0-3.81,2c.05-.07.09-.15.15-.23a7.31,7.31,0,0,1,1.11-1.25,9.38,9.38,0,0,1,1.39-1c.24-.15.5-.29.76-.42l.39-.21.19-.1.19-.11c.26-.14.5-.3.74-.46s.48-.34.7-.53a8.84,8.84,0,0,0,1.19-1.26,7.24,7.24,0,0,0,.89-1.45h0a13.19,13.19,0,0,1-2.19,2.59c-.1.1-.2.2-.31.29l-.33.28-.35.26-.36.23c-.24.16-.51.28-.76.42s-.54.24-.79.38a7.22,7.22,0,0,0-2.64,2.26,6.41,6.41,0,0,0-.7,1.35,4.92,4.92,0,0,1,.11-.93,2.25,2.25,0,0,1,.12-.21,5.57,5.57,0,0,1,.72-.9l.3-.19c.27-.21.53-.43.79-.65l.05-.05c.36-.26.72-.53,1.07-.81.13-.1.27-.2.39-.31l.39-.32q.39-.31.75-.66a16.91,16.91,0,0,0,1.38-1.43,15.06,15.06,0,0,0,1.19-1.57h0c-.84,1-1.74,2-2.68,2.9a18.39,18.39,0,0,1-1.44,1.35l-.39.31-.17.12.23-.21c.24-.24.48-.48.71-.73a19.26,19.26,0,0,0,1.29-1.55c.4-.53.79-1.08,1.14-1.64h0c-.84,1-1.68,2.08-2.55,3.1-.41.47-.82.94-1.27,1.38l-.18.11-.42.28a4.19,4.19,0,0,0-.84.67l-.27.1v0a9,9,0,0,1,.51-1.09c.2-.35.41-.7.63-1a8.87,8.87,0,0,1,.76-1l.22-.23.22-.21.46-.43,1.83-1.71h0a8.36,8.36,0,0,0-1,.75,10.78,10.78,0,0,0-.93.85c-.29.31-.55.63-.82.95l-.81,1a9.82,9.82,0,0,0-.71,1,6.36,6.36,0,0,0-.55,1.11l-.07.19,0,0a1.09,1.09,0,0,0-.23.14,1.21,1.21,0,0,0-.31.33s0,0,0-.06a6.61,6.61,0,0,1,.56-1.54,8.05,8.05,0,0,1,.92-1.4,14.09,14.09,0,0,1,2.35-2.41v0a8.29,8.29,0,0,0-1.37,1,9.24,9.24,0,0,0-1.13,1.29,10.54,10.54,0,0,0-.83,1.46,10.84,10.84,0,0,0-.61,1.55,5.11,5.11,0,0,0-.2.86,2,2,0,0,0-.05.24,5.11,5.11,0,0,0-.05.78,7.12,7.12,0,0,0,.09,1.38c0,.2.08.4.13.6a5.67,5.67,0,0,0,.1.57c0,.19.05.38.08.56-.15-.35-.28-.7-.4-1.05l-.14-.42c0-.14-.07-.28-.11-.42s-.12-.57-.18-.85a9.23,9.23,0,0,1-.09-1.74,6.06,6.06,0,0,1,.36-1.73,6.92,6.92,0,0,1,.86-1.58,10.36,10.36,0,0,1,2.55-2.61Zm-2.29,5.19a8.68,8.68,0,0,1-.71,2.18.13.13,0,0,0,0,.06,5.15,5.15,0,0,1,0-.88,2.59,2.59,0,0,1,.26-.9,1.32,1.32,0,0,1,.29-.37A.67.67,0,0,1,432.41,423.4Zm.22.05.06-.18h0l.12,0Zm-.39,1.08a4.32,4.32,0,0,0,.05.62,5.19,5.19,0,0,0-.47,1.51,6.13,6.13,0,0,1,.11-1.05A5.79,5.79,0,0,1,432.24,424.53Zm1.65,6.62a5.54,5.54,0,0,0,.87.12l.4.08c-.25,0-.5,0-.74-.08A4.54,4.54,0,0,1,433.89,431.15Z" transform="translate(-155.58 -320.99)"/><path class="cls-62" d="M445.63,428.53c-1.19.78-2.37,1.55-3.59,2.25-.31.18-.61.36-.93.52a6.54,6.54,0,0,1-1,.44,4.56,4.56,0,0,1-1,.25,6.14,6.14,0,0,1-1.05,0c-.71,0-1.41-.13-2.13-.18a11.16,11.16,0,0,0-2.16.05,7.57,7.57,0,0,0-2.1.61l-.49.24-.46.27-.23.14-.22.16-.42.32v0h0l.46-.26.23-.14.24-.11.48-.23.49-.2a9.56,9.56,0,0,1,2-.5,12.38,12.38,0,0,1,2.11-.08c.7,0,1.42.07,2.14.06.36,0,.72,0,1.08-.08a8.1,8.1,0,0,0,1.05-.27,14.36,14.36,0,0,0,2-.82,15.38,15.38,0,0,0,1.82-1.13,16.38,16.38,0,0,0,1.66-1.33s0,0,0,0Z" transform="translate(-155.58 -320.99)"/><path class="cls-63" d="M439.48,429.05c1.71-2,1.7-4.68,0-5.95s-4.52-.67-6.23,1.34-1,5.16,0,5.94S437.77,431.06,439.48,429.05Z" transform="translate(-155.58 -320.99)"/><path class="cls-64" d="M438.9,429.32c1.51-1.78,1.43-4.17-.18-5.36s-4.13-.7-5.64,1.07-.82,4.62.17,5.35S437.39,431.09,438.9,429.32Z" transform="translate(-155.58 -320.99)"/><path class="cls-65" d="M438,429.57a2.77,2.77,0,0,0-.7-4,3.3,3.3,0,0,0-4.39.29c-1,1.2-.17,3.4.7,4S437,430.77,438,429.57Z" transform="translate(-155.58 -320.99)"/><path class="cls-66" d="M437.16,429.52a2.41,2.41,0,0,0-.31-3.56,2.84,2.84,0,0,0-3.78.54c-1.53,1.79,1.1,1.14,1.86,1.77S435.65,431.29,437.16,429.52Z" transform="translate(-155.58 -320.99)"/><path class="cls-67" d="M396.37,439.34" transform="translate(-155.58 -320.99)"/></g></g></svg>